<svg xmlns="http://www.w3.org/2000/svg" xmlns:xlink="http://www.w3.org/1999/xlink" width="432" zoomAndPan="magnify" viewBox="0 0 324 215.999996" height="288" preserveAspectRatio="xMidYMid meet" version="1.0"><defs><clipPath id="46591477dd"><path d="M 0 0 L 323.976562 0 L 323.976562 215.425781 L 0 215.425781 Z M 0 0 " clip-rule="nonzero"/></clipPath><clipPath id="0b48a19dc5"><path d="M 22.5 0 L 300.875 0 C 313.304688 0 323.375 10.074219 323.375 22.5 L 323.375 192.925781 C 323.375 205.351562 313.304688 215.425781 300.875 215.425781 L 22.5 215.425781 C 10.074219 215.425781 0 205.351562 0 192.925781 L 0 22.5 C 0 10.074219 10.074219 0 22.5 0 Z M 22.5 0 " clip-rule="nonzero"/></clipPath><clipPath id="2f24b828b7"><path d="M 0 0 L 323.519531 0 L 323.519531 215.425781 L 0 215.425781 Z M 0 0 " clip-rule="nonzero"/></clipPath><clipPath id="0d467bcb08"><path d="M 22.5 0 L 300.875 0 C 313.304688 0 323.375 10.074219 323.375 22.5 L 323.375 192.925781 C 323.375 205.351562 313.304688 215.425781 300.875 215.425781 L 22.5 215.425781 C 10.074219 215.425781 0 205.351562 0 192.925781 L 0 22.5 C 0 10.074219 10.074219 0 22.5 0 Z M 22.5 0 " clip-rule="nonzero"/></clipPath><clipPath id="45d7b61b8e"><rect x="0" width="324" y="0" height="216"/></clipPath><clipPath id="6ec8119fcc"><path d="M 0.00390625 0 L 323.25 0 L 323.25 215.25 L 0.00390625 215.25 Z M 0.00390625 0 " clip-rule="nonzero"/></clipPath><clipPath id="f48dee3b07"><path d="M 22.5 0 L 300.867188 0 C 313.292969 0 323.363281 10.074219 323.363281 22.5 L 323.363281 192.914062 C 323.363281 205.339844 313.292969 215.414062 300.867188 215.414062 L 22.5 215.414062 C 10.074219 215.414062 0.00390625 205.339844 0.00390625 192.914062 L 0.00390625 22.5 C 0.00390625 10.074219 10.074219 0 22.5 0 Z M 22.5 0 " clip-rule="nonzero"/></clipPath><clipPath id="04b0b56eb3"><path d="M 131.675781 66.585938 L 307.324219 66.585938 L 307.324219 196.171875 L 131.675781 196.171875 Z M 131.675781 66.585938 " clip-rule="nonzero"/></clipPath><clipPath id="534f295309"><path d="M 139.175781 66.585938 L 299.683594 66.585938 C 301.671875 66.585938 303.578125 67.375 304.984375 68.78125 C 306.390625 70.1875 307.183594 72.097656 307.183594 74.085938 L 307.183594 188.671875 C 307.183594 190.660156 306.390625 192.566406 304.984375 193.972656 C 303.578125 195.378906 301.671875 196.171875 299.683594 196.171875 L 139.175781 196.171875 C 137.1875 196.171875 135.277344 195.378906 133.871094 193.972656 C 132.464844 192.566406 131.675781 190.660156 131.675781 188.671875 L 131.675781 74.085938 C 131.675781 72.097656 132.464844 70.1875 133.871094 68.78125 C 135.277344 67.375 137.1875 66.585938 139.175781 66.585938 Z M 139.175781 66.585938 " clip-rule="nonzero"/></clipPath><clipPath id="166e9969cc"><path d="M 0.675781 0.585938 L 176.199219 0.585938 L 176.199219 130.171875 L 0.675781 130.171875 Z M 0.675781 0.585938 " clip-rule="nonzero"/></clipPath><clipPath id="97b2ff9552"><path d="M 8.175781 0.585938 L 168.683594 0.585938 C 170.671875 0.585938 172.578125 1.375 173.984375 2.78125 C 175.390625 4.1875 176.183594 6.097656 176.183594 8.085938 L 176.183594 122.671875 C 176.183594 124.660156 175.390625 126.566406 173.984375 127.972656 C 172.578125 129.378906 170.671875 130.171875 168.683594 130.171875 L 8.175781 130.171875 C 6.1875 130.171875 4.277344 129.378906 2.871094 127.972656 C 1.464844 126.566406 0.675781 124.660156 0.675781 122.671875 L 0.675781 8.085938 C 0.675781 6.097656 1.464844 4.1875 2.871094 2.78125 C 4.277344 1.375 6.1875 0.585938 8.175781 0.585938 Z M 8.175781 0.585938 " clip-rule="nonzero"/></clipPath><clipPath id="7ea96dd254"><rect x="0" width="177" y="0" height="131"/></clipPath><clipPath id="3e1e26f486"><path d="M 1.5 48.742188 L 322 48.742188 L 322 212.84375 L 1.5 212.84375 Z M 1.5 48.742188 " clip-rule="nonzero"/></clipPath><clipPath id="78147a32fc"><path d="M 21.75 48.742188 L 301.5625 48.742188 C 312.746094 48.742188 321.8125 57.808594 321.8125 68.992188 L 321.8125 192.59375 C 321.8125 203.777344 312.746094 212.84375 301.5625 212.84375 L 21.75 212.84375 C 10.566406 212.84375 1.5 203.777344 1.5 192.59375 L 1.5 68.992188 C 1.5 57.808594 10.566406 48.742188 21.75 48.742188 Z M 21.75 48.742188 " clip-rule="nonzero"/></clipPath><clipPath id="48e8c76a5f"><path d="M 0.5 0.742188 L 320.839844 0.742188 L 320.839844 164.84375 L 0.5 164.84375 Z M 0.5 0.742188 " clip-rule="nonzero"/></clipPath><clipPath id="a074b9955b"><path d="M 20.75 0.742188 L 300.5625 0.742188 C 311.746094 0.742188 320.8125 9.808594 320.8125 20.992188 L 320.8125 144.59375 C 320.8125 155.777344 311.746094 164.84375 300.5625 164.84375 L 20.75 164.84375 C 9.566406 164.84375 0.5 155.777344 0.5 144.59375 L 0.5 20.992188 C 0.5 9.808594 9.566406 0.742188 20.75 0.742188 Z M 20.75 0.742188 " clip-rule="nonzero"/></clipPath><clipPath id="ffc39fa7de"><rect x="0" width="321" y="0" height="165"/></clipPath><clipPath id="3c1dcfc8d8"><path d="M 1.492188 48.742188 L 321.804688 48.742188 L 321.804688 76.339844 L 1.492188 76.339844 Z M 1.492188 48.742188 " clip-rule="nonzero"/></clipPath><clipPath id="efe323d3ea"><path d="M 0.492188 0.742188 L 320.804688 0.742188 L 320.804688 28.339844 L 0.492188 28.339844 Z M 0.492188 0.742188 " clip-rule="nonzero"/></clipPath><clipPath id="b9a7f0e30d"><rect x="0" width="321" y="0" height="29"/></clipPath><clipPath id="ca9b5b6ca4"><path d="M 27.933594 11.292969 L 59.503906 11.292969 L 59.503906 42.742188 L 27.933594 42.742188 Z M 27.933594 11.292969 " clip-rule="nonzero"/></clipPath><clipPath id="dbf04e2db7"><path d="M 43.675781 11.292969 C 34.980469 11.292969 27.933594 18.332031 27.933594 27.019531 C 27.933594 35.703125 34.980469 42.742188 43.675781 42.742188 C 52.371094 42.742188 59.417969 35.703125 59.417969 27.019531 C 59.417969 18.332031 52.371094 11.292969 43.675781 11.292969 Z M 43.675781 11.292969 " clip-rule="nonzero"/></clipPath><clipPath id="bcf66ab858"><path d="M 0.933594 0.292969 L 32.503906 0.292969 L 32.503906 31.742188 L 0.933594 31.742188 Z M 0.933594 0.292969 " clip-rule="nonzero"/></clipPath><clipPath id="abb202ca85"><path d="M 16.675781 0.292969 C 7.980469 0.292969 0.933594 7.332031 0.933594 16.019531 C 0.933594 24.703125 7.980469 31.742188 16.675781 31.742188 C 25.371094 31.742188 32.417969 24.703125 32.417969 16.019531 C 32.417969 7.332031 25.371094 0.292969 16.675781 0.292969 Z M 16.675781 0.292969 " clip-rule="nonzero"/></clipPath><clipPath id="f674ab0ce5"><rect x="0" width="33" y="0" height="32"/></clipPath><clipPath id="a5ee00cb72"><path d="M 258.210938 23.496094 L 303.980469 23.496094 L 303.980469 31.730469 L 258.210938 31.730469 Z M 258.210938 23.496094 " clip-rule="nonzero"/></clipPath><clipPath id="6bf048bf4a"><path d="M 262.328125 23.496094 L 299.835938 23.496094 C 300.925781 23.496094 301.972656 23.929688 302.746094 24.703125 C 303.519531 25.476562 303.953125 26.523438 303.953125 27.613281 C 303.953125 28.707031 303.519531 29.753906 302.746094 30.527344 C 301.972656 31.296875 300.925781 31.730469 299.835938 31.730469 L 262.328125 31.730469 C 261.234375 31.730469 260.1875 31.296875 259.414062 30.527344 C 258.644531 29.753906 258.210938 28.707031 258.210938 27.613281 C 258.210938 26.523438 258.644531 25.476562 259.414062 24.703125 C 260.1875 23.929688 261.234375 23.496094 262.328125 23.496094 Z M 262.328125 23.496094 " clip-rule="nonzero"/></clipPath><clipPath id="3d3b866e18"><path d="M 0.210938 0.496094 L 45.980469 0.496094 L 45.980469 8.730469 L 0.210938 8.730469 Z M 0.210938 0.496094 " clip-rule="nonzero"/></clipPath><clipPath id="b8f571e162"><path d="M 4.328125 0.496094 L 41.835938 0.496094 C 42.925781 0.496094 43.972656 0.929688 44.746094 1.703125 C 45.519531 2.476562 45.953125 3.523438 45.953125 4.613281 C 45.953125 5.707031 45.519531 6.753906 44.746094 7.527344 C 43.972656 8.296875 42.925781 8.730469 41.835938 8.730469 L 4.328125 8.730469 C 3.234375 8.730469 2.1875 8.296875 1.414062 7.527344 C 0.644531 6.753906 0.210938 5.707031 0.210938 4.613281 C 0.210938 3.523438 0.644531 2.476562 1.414062 1.703125 C 2.1875 0.929688 3.234375 0.496094 4.328125 0.496094 Z M 4.328125 0.496094 " clip-rule="nonzero"/></clipPath><clipPath id="f622fdd002"><rect x="0" width="46" y="0" height="9"/></clipPath><clipPath id="b1cb4ba5b1"><path d="M 231.539062 23.496094 L 250.742188 23.496094 L 250.742188 31.730469 L 231.539062 31.730469 Z M 231.539062 23.496094 " clip-rule="nonzero"/></clipPath><clipPath id="37997f3ea4"><path d="M 235.65625 23.496094 L 246.601562 23.496094 C 247.691406 23.496094 248.738281 23.929688 249.511719 24.703125 C 250.285156 25.476562 250.71875 26.523438 250.71875 27.613281 C 250.71875 28.707031 250.285156 29.753906 249.511719 30.527344 C 248.738281 31.296875 247.691406 31.730469 246.601562 31.730469 L 235.65625 31.730469 C 234.566406 31.730469 233.519531 31.296875 232.746094 30.527344 C 231.972656 29.753906 231.539062 28.707031 231.539062 27.613281 C 231.539062 26.523438 231.972656 25.476562 232.746094 24.703125 C 233.519531 23.929688 234.566406 23.496094 235.65625 23.496094 Z M 235.65625 23.496094 " clip-rule="nonzero"/></clipPath><clipPath id="270da5c2ad"><path d="M 0.539062 0.496094 L 19.742188 0.496094 L 19.742188 8.730469 L 0.539062 8.730469 Z M 0.539062 0.496094 " clip-rule="nonzero"/></clipPath><clipPath id="46b8334eeb"><path d="M 4.65625 0.496094 L 15.601562 0.496094 C 16.691406 0.496094 17.738281 0.929688 18.511719 1.703125 C 19.285156 2.476562 19.71875 3.523438 19.71875 4.613281 C 19.71875 5.707031 19.285156 6.753906 18.511719 7.527344 C 17.738281 8.296875 16.691406 8.730469 15.601562 8.730469 L 4.65625 8.730469 C 3.566406 8.730469 2.519531 8.296875 1.746094 7.527344 C 0.972656 6.753906 0.539062 5.707031 0.539062 4.613281 C 0.539062 3.523438 0.972656 2.476562 1.746094 1.703125 C 2.519531 0.929688 3.566406 0.496094 4.65625 0.496094 Z M 4.65625 0.496094 " clip-rule="nonzero"/></clipPath><clipPath id="bfddb5b5ad"><rect x="0" width="20" y="0" height="9"/></clipPath><clipPath id="9dc63ce706"><path d="M 213.171875 23.496094 L 224.074219 23.496094 L 224.074219 31.730469 L 213.171875 31.730469 Z M 213.171875 23.496094 " clip-rule="nonzero"/></clipPath><clipPath id="249140e1c4"><path d="M 217.289062 23.496094 L 219.929688 23.496094 C 221.023438 23.496094 222.070312 23.929688 222.84375 24.703125 C 223.613281 25.476562 224.046875 26.523438 224.046875 27.613281 C 224.046875 28.707031 223.613281 29.753906 222.84375 30.527344 C 222.070312 31.296875 221.023438 31.730469 219.929688 31.730469 L 217.289062 31.730469 C 216.199219 31.730469 215.148438 31.296875 214.378906 30.527344 C 213.605469 29.753906 213.171875 28.707031 213.171875 27.613281 C 213.171875 26.523438 213.605469 25.476562 214.378906 24.703125 C 215.148438 23.929688 216.199219 23.496094 217.289062 23.496094 Z M 217.289062 23.496094 " clip-rule="nonzero"/></clipPath><clipPath id="49a5bf380a"><path d="M 0.171875 0.496094 L 11.074219 0.496094 L 11.074219 8.730469 L 0.171875 8.730469 Z M 0.171875 0.496094 " clip-rule="nonzero"/></clipPath><clipPath id="1af14cc1a1"><path d="M 4.289062 0.496094 L 6.929688 0.496094 C 8.023438 0.496094 9.070312 0.929688 9.84375 1.703125 C 10.613281 2.476562 11.046875 3.523438 11.046875 4.613281 C 11.046875 5.707031 10.613281 6.753906 9.84375 7.527344 C 9.070312 8.296875 8.023438 8.730469 6.929688 8.730469 L 4.289062 8.730469 C 3.199219 8.730469 2.148438 8.296875 1.378906 7.527344 C 0.605469 6.753906 0.171875 5.707031 0.171875 4.613281 C 0.171875 3.523438 0.605469 2.476562 1.378906 1.703125 C 2.148438 0.929688 3.199219 0.496094 4.289062 0.496094 Z M 4.289062 0.496094 " clip-rule="nonzero"/></clipPath><clipPath id="5f9d3055a5"><rect x="0" width="12" y="0" height="9"/></clipPath><clipPath id="5c9f716da6"><path d="M 194.804688 23.496094 L 205.707031 23.496094 L 205.707031 31.730469 L 194.804688 31.730469 Z M 194.804688 23.496094 " clip-rule="nonzero"/></clipPath><clipPath id="1b699ffd98"><path d="M 198.921875 23.496094 L 201.5625 23.496094 C 202.65625 23.496094 203.703125 23.929688 204.472656 24.703125 C 205.246094 25.476562 205.679688 26.523438 205.679688 27.613281 C 205.679688 28.707031 205.246094 29.753906 204.472656 30.527344 C 203.703125 31.296875 202.65625 31.730469 201.5625 31.730469 L 198.921875 31.730469 C 197.828125 31.730469 196.78125 31.296875 196.011719 30.527344 C 195.238281 29.753906 194.804688 28.707031 194.804688 27.613281 C 194.804688 26.523438 195.238281 25.476562 196.011719 24.703125 C 196.78125 23.929688 197.828125 23.496094 198.921875 23.496094 Z M 198.921875 23.496094 " clip-rule="nonzero"/></clipPath><clipPath id="52ebc98829"><path d="M 0.804688 0.496094 L 11.707031 0.496094 L 11.707031 8.730469 L 0.804688 8.730469 Z M 0.804688 0.496094 " clip-rule="nonzero"/></clipPath><clipPath id="bca65c3c14"><path d="M 4.921875 0.496094 L 7.5625 0.496094 C 8.65625 0.496094 9.703125 0.929688 10.472656 1.703125 C 11.246094 2.476562 11.679688 3.523438 11.679688 4.613281 C 11.679688 5.707031 11.246094 6.753906 10.472656 7.527344 C 9.703125 8.296875 8.65625 8.730469 7.5625 8.730469 L 4.921875 8.730469 C 3.828125 8.730469 2.78125 8.296875 2.011719 7.527344 C 1.238281 6.753906 0.804688 5.707031 0.804688 4.613281 C 0.804688 3.523438 1.238281 2.476562 2.011719 1.703125 C 2.78125 0.929688 3.828125 0.496094 4.921875 0.496094 Z M 4.921875 0.496094 " clip-rule="nonzero"/></clipPath><clipPath id="26f4ba26b9"><rect x="0" width="12" y="0" height="9"/></clipPath><clipPath id="977047aa42"><path d="M 27.933594 60.988281 L 117.398438 60.988281 L 117.398438 75.230469 L 27.933594 75.230469 Z M 27.933594 60.988281 " clip-rule="nonzero"/></clipPath><clipPath id="1d96811853"><path d="M 35.054688 60.988281 L 110.234375 60.988281 C 112.121094 60.988281 113.933594 61.738281 115.269531 63.074219 C 116.605469 64.410156 117.355469 66.21875 117.355469 68.109375 C 117.355469 69.996094 116.605469 71.808594 115.269531 73.144531 C 113.933594 74.480469 112.121094 75.230469 110.234375 75.230469 L 35.054688 75.230469 C 33.167969 75.230469 31.355469 74.480469 30.019531 73.144531 C 28.683594 71.808594 27.933594 69.996094 27.933594 68.109375 C 27.933594 66.21875 28.683594 64.410156 30.019531 63.074219 C 31.355469 61.738281 33.167969 60.988281 35.054688 60.988281 Z M 35.054688 60.988281 " clip-rule="nonzero"/></clipPath><clipPath id="e83859d99b"><path d="M 0.933594 0.988281 L 90.359375 0.988281 L 90.359375 15.230469 L 0.933594 15.230469 Z M 0.933594 0.988281 " clip-rule="nonzero"/></clipPath><clipPath id="3edf6183fd"><path d="M 8.054688 0.988281 L 83.234375 0.988281 C 85.121094 0.988281 86.933594 1.738281 88.269531 3.074219 C 89.605469 4.410156 90.355469 6.21875 90.355469 8.109375 C 90.355469 9.996094 89.605469 11.808594 88.269531 13.144531 C 86.933594 14.480469 85.121094 15.230469 83.234375 15.230469 L 8.054688 15.230469 C 6.167969 15.230469 4.355469 14.480469 3.019531 13.144531 C 1.683594 11.808594 0.933594 9.996094 0.933594 8.109375 C 0.933594 6.21875 1.683594 4.410156 3.019531 3.074219 C 4.355469 1.738281 6.167969 0.988281 8.054688 0.988281 Z M 8.054688 0.988281 " clip-rule="nonzero"/></clipPath><clipPath id="a9567f1899"><rect x="0" width="91" y="0" height="16"/></clipPath><clipPath id="2484c174d7"><path d="M 27.933594 82.335938 L 90.914062 82.335938 L 90.914062 96.582031 L 27.933594 96.582031 Z M 27.933594 82.335938 " clip-rule="nonzero"/></clipPath><clipPath id="e7210605c4"><path d="M 35.054688 82.335938 L 83.785156 82.335938 C 85.671875 82.335938 87.484375 83.089844 88.820312 84.421875 C 90.15625 85.757812 90.90625 87.570312 90.90625 89.460938 C 90.90625 91.347656 90.15625 93.160156 88.820312 94.496094 C 87.484375 95.832031 85.671875 96.582031 83.785156 96.582031 L 35.054688 96.582031 C 33.167969 96.582031 31.355469 95.832031 30.019531 94.496094 C 28.683594 93.160156 27.933594 91.347656 27.933594 89.460938 C 27.933594 87.570312 28.683594 85.757812 30.019531 84.421875 C 31.355469 83.089844 33.167969 82.335938 35.054688 82.335938 Z M 35.054688 82.335938 " clip-rule="nonzero"/></clipPath><clipPath id="9a709bf702"><path d="M 0.933594 0.335938 L 63.914062 0.335938 L 63.914062 14.582031 L 0.933594 14.582031 Z M 0.933594 0.335938 " clip-rule="nonzero"/></clipPath><clipPath id="2d28188ed0"><path d="M 8.054688 0.335938 L 56.785156 0.335938 C 58.671875 0.335938 60.484375 1.089844 61.820312 2.421875 C 63.15625 3.757812 63.90625 5.570312 63.90625 7.460938 C 63.90625 9.347656 63.15625 11.160156 61.820312 12.496094 C 60.484375 13.832031 58.671875 14.582031 56.785156 14.582031 L 8.054688 14.582031 C 6.167969 14.582031 4.355469 13.832031 3.019531 12.496094 C 1.683594 11.160156 0.933594 9.347656 0.933594 7.460938 C 0.933594 5.570312 1.683594 3.757812 3.019531 2.421875 C 4.355469 1.089844 6.167969 0.335938 8.054688 0.335938 Z M 8.054688 0.335938 " clip-rule="nonzero"/></clipPath><clipPath id="d7e67319f8"><rect x="0" width="64" y="0" height="15"/></clipPath><clipPath id="79be770fcd"><path d="M 27.933594 106.640625 L 117.398438 106.640625 L 117.398438 120.882812 L 27.933594 120.882812 Z M 27.933594 106.640625 " clip-rule="nonzero"/></clipPath><clipPath id="c90f5c46be"><path d="M 35.054688 106.640625 L 110.234375 106.640625 C 112.121094 106.640625 113.933594 107.390625 115.269531 108.726562 C 116.605469 110.0625 117.355469 111.875 117.355469 113.761719 C 117.355469 115.652344 116.605469 117.460938 115.269531 118.796875 C 113.933594 120.132812 112.121094 120.882812 110.234375 120.882812 L 35.054688 120.882812 C 33.167969 120.882812 31.355469 120.132812 30.019531 118.796875 C 28.683594 117.460938 27.933594 115.652344 27.933594 113.761719 C 27.933594 111.875 28.683594 110.0625 30.019531 108.726562 C 31.355469 107.390625 33.167969 106.640625 35.054688 106.640625 Z M 35.054688 106.640625 " clip-rule="nonzero"/></clipPath><clipPath id="5fadd0819e"><path d="M 0.933594 0.640625 L 90.359375 0.640625 L 90.359375 14.882812 L 0.933594 14.882812 Z M 0.933594 0.640625 " clip-rule="nonzero"/></clipPath><clipPath id="254b75b06a"><path d="M 8.054688 0.640625 L 83.234375 0.640625 C 85.121094 0.640625 86.933594 1.390625 88.269531 2.726562 C 89.605469 4.0625 90.355469 5.875 90.355469 7.761719 C 90.355469 9.652344 89.605469 11.460938 88.269531 12.796875 C 86.933594 14.132812 85.121094 14.882812 83.234375 14.882812 L 8.054688 14.882812 C 6.167969 14.882812 4.355469 14.132812 3.019531 12.796875 C 1.683594 11.460938 0.933594 9.652344 0.933594 7.761719 C 0.933594 5.875 1.683594 4.0625 3.019531 2.726562 C 4.355469 1.390625 6.167969 0.640625 8.054688 0.640625 Z M 8.054688 0.640625 " clip-rule="nonzero"/></clipPath><clipPath id="c63a8a0d07"><rect x="0" width="91" y="0" height="15"/></clipPath><clipPath id="40af0c91ea"><path d="M 27.933594 127.992188 L 90.914062 127.992188 L 90.914062 142.234375 L 27.933594 142.234375 Z M 27.933594 127.992188 " clip-rule="nonzero"/></clipPath><clipPath id="414062eafe"><path d="M 35.054688 127.992188 L 83.785156 127.992188 C 85.671875 127.992188 87.484375 128.742188 88.820312 130.078125 C 90.15625 131.414062 90.90625 133.222656 90.90625 135.113281 C 90.90625 137 90.15625 138.8125 88.820312 140.148438 C 87.484375 141.484375 85.671875 142.234375 83.785156 142.234375 L 35.054688 142.234375 C 33.167969 142.234375 31.355469 141.484375 30.019531 140.148438 C 28.683594 138.8125 27.933594 137 27.933594 135.113281 C 27.933594 133.222656 28.683594 131.414062 30.019531 130.078125 C 31.355469 128.742188 33.167969 127.992188 35.054688 127.992188 Z M 35.054688 127.992188 " clip-rule="nonzero"/></clipPath><clipPath id="608ca0ee7b"><path d="M 0.933594 0.992188 L 63.914062 0.992188 L 63.914062 15.234375 L 0.933594 15.234375 Z M 0.933594 0.992188 " clip-rule="nonzero"/></clipPath><clipPath id="54d6ec3f44"><path d="M 8.054688 0.992188 L 56.785156 0.992188 C 58.671875 0.992188 60.484375 1.742188 61.820312 3.078125 C 63.15625 4.414062 63.90625 6.222656 63.90625 8.113281 C 63.90625 10 63.15625 11.8125 61.820312 13.148438 C 60.484375 14.484375 58.671875 15.234375 56.785156 15.234375 L 8.054688 15.234375 C 6.167969 15.234375 4.355469 14.484375 3.019531 13.148438 C 1.683594 11.8125 0.933594 10 0.933594 8.113281 C 0.933594 6.222656 1.683594 4.414062 3.019531 3.078125 C 4.355469 1.742188 6.167969 0.992188 8.054688 0.992188 Z M 8.054688 0.992188 " clip-rule="nonzero"/></clipPath><clipPath id="6aa9757817"><rect x="0" width="64" y="0" height="16"/></clipPath><clipPath id="abc835b738"><path d="M 27.933594 151.917969 L 117.398438 151.917969 L 117.398438 166.164062 L 27.933594 166.164062 Z M 27.933594 151.917969 " clip-rule="nonzero"/></clipPath><clipPath id="6c43ed8797"><path d="M 35.054688 151.917969 L 110.234375 151.917969 C 112.121094 151.917969 113.933594 152.671875 115.269531 154.003906 C 116.605469 155.339844 117.355469 157.152344 117.355469 159.042969 C 117.355469 160.929688 116.605469 162.742188 115.269531 164.078125 C 113.933594 165.414062 112.121094 166.164062 110.234375 166.164062 L 35.054688 166.164062 C 33.167969 166.164062 31.355469 165.414062 30.019531 164.078125 C 28.683594 162.742188 27.933594 160.929688 27.933594 159.042969 C 27.933594 157.152344 28.683594 155.339844 30.019531 154.003906 C 31.355469 152.671875 33.167969 151.917969 35.054688 151.917969 Z M 35.054688 151.917969 " clip-rule="nonzero"/></clipPath><clipPath id="4358d93f27"><path d="M 0.933594 0.921875 L 90.359375 0.921875 L 90.359375 15.164062 L 0.933594 15.164062 Z M 0.933594 0.921875 " clip-rule="nonzero"/></clipPath><clipPath id="271042e252"><path d="M 8.054688 0.917969 L 83.234375 0.917969 C 85.121094 0.917969 86.933594 1.671875 88.269531 3.003906 C 89.605469 4.339844 90.355469 6.152344 90.355469 8.042969 C 90.355469 9.929688 89.605469 11.742188 88.269531 13.078125 C 86.933594 14.414062 85.121094 15.164062 83.234375 15.164062 L 8.054688 15.164062 C 6.167969 15.164062 4.355469 14.414062 3.019531 13.078125 C 1.683594 11.742188 0.933594 9.929688 0.933594 8.042969 C 0.933594 6.152344 1.683594 4.339844 3.019531 3.003906 C 4.355469 1.671875 6.167969 0.917969 8.054688 0.917969 Z M 8.054688 0.917969 " clip-rule="nonzero"/></clipPath><clipPath id="165a160ceb"><rect x="0" width="91" y="0" height="16"/></clipPath><clipPath id="ee1b60b18f"><path d="M 27.933594 173.269531 L 90.914062 173.269531 L 90.914062 187.511719 L 27.933594 187.511719 Z M 27.933594 173.269531 " clip-rule="nonzero"/></clipPath><clipPath id="84c984e286"><path d="M 35.054688 173.269531 L 83.785156 173.269531 C 85.671875 173.269531 87.484375 174.019531 88.820312 175.355469 C 90.15625 176.691406 90.90625 178.503906 90.90625 180.390625 C 90.90625 182.28125 90.15625 184.089844 88.820312 185.425781 C 87.484375 186.761719 85.671875 187.511719 83.785156 187.511719 L 35.054688 187.511719 C 33.167969 187.511719 31.355469 186.761719 30.019531 185.425781 C 28.683594 184.089844 27.933594 182.28125 27.933594 180.390625 C 27.933594 178.503906 28.683594 176.691406 30.019531 175.355469 C 31.355469 174.019531 33.167969 173.269531 35.054688 173.269531 Z M 35.054688 173.269531 " clip-rule="nonzero"/></clipPath><clipPath id="3fd995f4eb"><path d="M 0.933594 0.269531 L 63.914062 0.269531 L 63.914062 14.511719 L 0.933594 14.511719 Z M 0.933594 0.269531 " clip-rule="nonzero"/></clipPath><clipPath id="5772919701"><path d="M 8.054688 0.269531 L 56.785156 0.269531 C 58.671875 0.269531 60.484375 1.019531 61.820312 2.355469 C 63.15625 3.691406 63.90625 5.503906 63.90625 7.390625 C 63.90625 9.28125 63.15625 11.089844 61.820312 12.425781 C 60.484375 13.761719 58.671875 14.511719 56.785156 14.511719 L 8.054688 14.511719 C 6.167969 14.511719 4.355469 13.761719 3.019531 12.425781 C 1.683594 11.089844 0.933594 9.28125 0.933594 7.390625 C 0.933594 5.503906 1.683594 3.691406 3.019531 2.355469 C 4.355469 1.019531 6.167969 0.269531 8.054688 0.269531 Z M 8.054688 0.269531 " clip-rule="nonzero"/></clipPath><clipPath id="4760423c63"><rect x="0" width="64" y="0" height="15"/></clipPath><clipPath id="ad1a8e194b"><path d="M 140.164062 60.988281 L 306.699219 60.988281 L 306.699219 190.570312 L 140.164062 190.570312 Z M 140.164062 60.988281 " clip-rule="nonzero"/></clipPath><clipPath id="7a2f585126"><path d="M 147.664062 60.988281 L 298.863281 60.988281 C 300.851562 60.988281 302.761719 61.777344 304.167969 63.183594 C 305.574219 64.589844 306.363281 66.5 306.363281 68.488281 L 306.363281 183.070312 C 306.363281 185.0625 305.574219 186.96875 304.167969 188.375 C 302.761719 189.78125 300.851562 190.570312 298.863281 190.570312 L 147.664062 190.570312 C 145.671875 190.570312 143.765625 189.78125 142.359375 188.375 C 140.953125 186.96875 140.164062 185.0625 140.164062 183.070312 L 140.164062 68.488281 C 140.164062 66.5 140.953125 64.589844 142.359375 63.183594 C 143.765625 61.777344 145.671875 60.988281 147.664062 60.988281 Z M 147.664062 60.988281 " clip-rule="nonzero"/></clipPath><clipPath id="e7ae0187c9"><path d="M 0.164062 0.988281 L 166.480469 0.988281 L 166.480469 130.570312 L 0.164062 130.570312 Z M 0.164062 0.988281 " clip-rule="nonzero"/></clipPath><clipPath id="95c43b1ef3"><path d="M 7.664062 0.988281 L 158.863281 0.988281 C 160.851562 0.988281 162.761719 1.777344 164.167969 3.183594 C 165.574219 4.589844 166.363281 6.5 166.363281 8.488281 L 166.363281 123.070312 C 166.363281 125.0625 165.574219 126.96875 164.167969 128.375 C 162.761719 129.78125 160.851562 130.570312 158.863281 130.570312 L 7.664062 130.570312 C 5.671875 130.570312 3.765625 129.78125 2.359375 128.375 C 0.953125 126.96875 0.164062 125.0625 0.164062 123.070312 L 0.164062 8.488281 C 0.164062 6.5 0.953125 4.589844 2.359375 3.183594 C 3.765625 1.777344 5.671875 0.988281 7.664062 0.988281 Z M 7.664062 0.988281 " clip-rule="nonzero"/></clipPath><clipPath id="6a32f79296"><rect x="0" width="167" y="0" height="131"/></clipPath></defs><g clip-path="url(#46591477dd)"><g clip-path="url(#0b48a19dc5)"><g transform="matrix(1, 0, 0, 1, -0, 0)"><g clip-path="url(#45d7b61b8e)"><g clip-path="url(#2f24b828b7)"><g clip-path="url(#0d467bcb08)"><path fill="#e3e5e5" d="M 0 0 L 323.136719 0 L 323.136719 215.425781 L 0 215.425781 Z M 0 0 " fill-opacity="1" fill-rule="nonzero"/></g></g></g></g></g></g><g clip-path="url(#6ec8119fcc)"><g clip-path="url(#f48dee3b07)"><path stroke-linecap="butt" transform="matrix(0.75, 0, 0, 0.75, 0.00278986, -0.000000000000021316)" fill="none" stroke-linejoin="miter" d="M 29.996282 0.000000000000028422 L 401.152555 0.000000000000028422 C 417.720264 0.000000000000028422 431.147349 13.432292 431.147349 30.000002 L 431.147349 257.218766 C 431.147349 273.786475 417.720264 287.218768 401.152555 287.218768 L 29.996282 287.218768 C 13.428573 287.218768 0.00148852 273.786475 0.00148852 257.218766 L 0.00148852 30.000002 C 0.00148852 13.432292 13.428573 0.000000000000028422 29.996282 0.000000000000028422 Z M 29.996282 0.000000000000028422 " stroke="#c5c5c5" stroke-width="4" stroke-opacity="1" stroke-miterlimit="4"/></g></g><g clip-path="url(#04b0b56eb3)"><g clip-path="url(#534f295309)"><g transform="matrix(1, 0, 0, 1, 131, 66)"><g clip-path="url(#7ea96dd254)"><g clip-path="url(#166e9969cc)"><g clip-path="url(#97b2ff9552)"><path fill="#dfdfdf" d="M 0.675781 0.585938 L 176.324219 0.585938 L 176.324219 130.171875 L 0.675781 130.171875 Z M 0.675781 0.585938 " fill-opacity="1" fill-rule="nonzero"/></g></g></g></g></g></g><g clip-path="url(#3e1e26f486)"><g clip-path="url(#78147a32fc)"><g transform="matrix(1, 0, 0, 1, 1, 48)"><g clip-path="url(#ffc39fa7de)"><g clip-path="url(#48e8c76a5f)"><g clip-path="url(#a074b9955b)"><path fill="#ffffff" d="M 0.5 0.742188 L 321.015625 0.742188 L 321.015625 164.84375 L 0.5 164.84375 Z M 0.5 0.742188 " fill-opacity="1" fill-rule="nonzero"/></g></g></g></g></g></g><g clip-path="url(#3c1dcfc8d8)"><g transform="matrix(1, 0, 0, 1, 1, 48)"><g clip-path="url(#b9a7f0e30d)"><g clip-path="url(#efe323d3ea)"><path fill="#ffffff" d="M 320.804688 0.742188 L 320.804688 28.339844 L 0.449219 28.339844 L 0.449219 0.742188 Z M 320.804688 0.742188 " fill-opacity="1" fill-rule="nonzero"/></g></g></g></g><g clip-path="url(#ca9b5b6ca4)"><g clip-path="url(#dbf04e2db7)"><g transform="matrix(1, 0, 0, 1, 27, 11)"><g clip-path="url(#f674ab0ce5)"><g clip-path="url(#bcf66ab858)"><g clip-path="url(#abb202ca85)"><path fill="#3b82f6" d="M 0.933594 0.292969 L 32.382812 0.292969 L 32.382812 31.742188 L 0.933594 31.742188 Z M 0.933594 0.292969 " fill-opacity="1" fill-rule="nonzero"/></g></g></g></g></g></g><g clip-path="url(#a5ee00cb72)"><g clip-path="url(#6bf048bf4a)"><g transform="matrix(1, 0, 0, 1, 258, 23)"><g clip-path="url(#f622fdd002)"><g clip-path="url(#3d3b866e18)"><g clip-path="url(#b8f571e162)"><path fill="#a2a2a2" d="M 0.210938 0.496094 L 45.949219 0.496094 L 45.949219 8.730469 L 0.210938 8.730469 Z M 0.210938 0.496094 " fill-opacity="1" fill-rule="nonzero"/></g></g></g></g></g></g><g clip-path="url(#b1cb4ba5b1)"><g clip-path="url(#37997f3ea4)"><g transform="matrix(1, 0, 0, 1, 231, 23)"><g clip-path="url(#bfddb5b5ad)"><g clip-path="url(#270da5c2ad)"><g clip-path="url(#46b8334eeb)"><path fill="#3b82f6" d="M 0.539062 0.496094 L 19.710938 0.496094 L 19.710938 8.730469 L 0.539062 8.730469 Z M 0.539062 0.496094 " fill-opacity="1" fill-rule="nonzero"/></g></g></g></g></g></g><g clip-path="url(#9dc63ce706)"><g clip-path="url(#249140e1c4)"><g transform="matrix(1, 0, 0, 1, 213, 23)"><g clip-path="url(#5f9d3055a5)"><g clip-path="url(#49a5bf380a)"><g clip-path="url(#1af14cc1a1)"><path fill="#a2a2a2" d="M 0.171875 0.496094 L 11.042969 0.496094 L 11.042969 8.730469 L 0.171875 8.730469 Z M 0.171875 0.496094 " fill-opacity="1" fill-rule="nonzero"/></g></g></g></g></g></g><g clip-path="url(#5c9f716da6)"><g clip-path="url(#1b699ffd98)"><g transform="matrix(1, 0, 0, 1, 194, 23)"><g clip-path="url(#26f4ba26b9)"><g clip-path="url(#52ebc98829)"><g clip-path="url(#bca65c3c14)"><path fill="#a2a2a2" d="M 0.804688 0.496094 L 11.675781 0.496094 L 11.675781 8.730469 L 0.804688 8.730469 Z M 0.804688 0.496094 " fill-opacity="1" fill-rule="nonzero"/></g></g></g></g></g></g><g clip-path="url(#977047aa42)"><g clip-path="url(#1d96811853)"><g transform="matrix(1, 0, 0, 1, 27, 60)"><g clip-path="url(#a9567f1899)"><g clip-path="url(#e83859d99b)"><g clip-path="url(#3edf6183fd)"><path fill="#616262" d="M 0.933594 0.988281 L 90.339844 0.988281 L 90.339844 15.230469 L 0.933594 15.230469 Z M 0.933594 0.988281 " fill-opacity="1" fill-rule="nonzero"/></g></g></g></g></g></g><g clip-path="url(#2484c174d7)"><g clip-path="url(#e7210605c4)"><g transform="matrix(1, 0, 0, 1, 27, 82)"><g clip-path="url(#d7e67319f8)"><g clip-path="url(#9a709bf702)"><g clip-path="url(#2d28188ed0)"><path fill="#a2a2a2" d="M 0.933594 0.335938 L 63.914062 0.335938 L 63.914062 14.582031 L 0.933594 14.582031 Z M 0.933594 0.335938 " fill-opacity="1" fill-rule="nonzero"/></g></g></g></g></g></g><g clip-path="url(#79be770fcd)"><g clip-path="url(#c90f5c46be)"><g transform="matrix(1, 0, 0, 1, 27, 106)"><g clip-path="url(#c63a8a0d07)"><g clip-path="url(#5fadd0819e)"><g clip-path="url(#254b75b06a)"><path fill="#616262" d="M 0.933594 0.640625 L 90.339844 0.640625 L 90.339844 14.882812 L 0.933594 14.882812 Z M 0.933594 0.640625 " fill-opacity="1" fill-rule="nonzero"/></g></g></g></g></g></g><g clip-path="url(#40af0c91ea)"><g clip-path="url(#414062eafe)"><g transform="matrix(1, 0, 0, 1, 27, 127)"><g clip-path="url(#6aa9757817)"><g clip-path="url(#608ca0ee7b)"><g clip-path="url(#54d6ec3f44)"><path fill="#a2a2a2" d="M 0.933594 0.992188 L 63.914062 0.992188 L 63.914062 15.234375 L 0.933594 15.234375 Z M 0.933594 0.992188 " fill-opacity="1" fill-rule="nonzero"/></g></g></g></g></g></g><g clip-path="url(#abc835b738)"><g clip-path="url(#6c43ed8797)"><g transform="matrix(1, 0, 0, 1, 27, 151)"><g clip-path="url(#165a160ceb)"><g clip-path="url(#4358d93f27)"><g clip-path="url(#271042e252)"><path fill="#616262" d="M 0.933594 0.917969 L 90.339844 0.917969 L 90.339844 15.164062 L 0.933594 15.164062 Z M 0.933594 0.917969 " fill-opacity="1" fill-rule="nonzero"/></g></g></g></g></g></g><g clip-path="url(#ee1b60b18f)"><g clip-path="url(#84c984e286)"><g transform="matrix(1, 0, 0, 1, 27, 173)"><g clip-path="url(#4760423c63)"><g clip-path="url(#3fd995f4eb)"><g clip-path="url(#5772919701)"><path fill="#a2a2a2" d="M 0.933594 0.269531 L 63.914062 0.269531 L 63.914062 14.511719 L 0.933594 14.511719 Z M 0.933594 0.269531 " fill-opacity="1" fill-rule="nonzero"/></g></g></g></g></g></g><g clip-path="url(#ad1a8e194b)"><g clip-path="url(#7a2f585126)"><g transform="matrix(1, 0, 0, 1, 140, 60)"><g clip-path="url(#6a32f79296)"><g clip-path="url(#e7ae0187c9)"><g clip-path="url(#95c43b1ef3)"><path fill="#dfdfdf" d="M 0.164062 0.988281 L 166.191406 0.988281 L 166.191406 130.570312 L 0.164062 130.570312 Z M 0.164062 0.988281 " fill-opacity="1" fill-rule="nonzero"/></g></g></g></g></g></g></svg>