<svg xmlns="http://www.w3.org/2000/svg" xmlns:xlink="http://www.w3.org/1999/xlink" width="433" zoomAndPan="magnify" viewBox="0 0 324.75 216.749995" height="289" preserveAspectRatio="xMidYMid meet" version="1.0"><defs><clipPath id="9497bbcd62"><path d="M 0.0625 0 L 324 0 L 324 215.980469 L 0.0625 215.980469 Z M 0.0625 0 " clip-rule="nonzero"/></clipPath><clipPath id="4d1aab6e1b"><path d="M 22.535156 0 L 301.339844 0 C 313.753906 0 323.816406 10.0625 323.816406 22.472656 L 323.816406 193.503906 C 323.816406 205.917969 313.753906 215.980469 301.339844 215.980469 L 22.535156 215.980469 C 10.125 215.980469 0.0625 205.917969 0.0625 193.503906 L 0.0625 22.472656 C 0.0625 10.0625 10.125 0 22.535156 0 Z M 22.535156 0 " clip-rule="nonzero"/></clipPath><clipPath id="bdd5a2bb2e"><path d="M 0.0625 0 L 323.929688 0 L 323.929688 215.980469 L 0.0625 215.980469 Z M 0.0625 0 " clip-rule="nonzero"/></clipPath><clipPath id="39ad0d3781"><path d="M 22.535156 0 L 301.339844 0 C 313.753906 0 323.816406 10.0625 323.816406 22.472656 L 323.816406 193.503906 C 323.816406 205.917969 313.753906 215.980469 301.339844 215.980469 L 22.535156 215.980469 C 10.125 215.980469 0.0625 205.917969 0.0625 193.503906 L 0.0625 22.472656 C 0.0625 10.0625 10.125 0 22.535156 0 Z M 22.535156 0 " clip-rule="nonzero"/></clipPath><clipPath id="9816c8753a"><rect x="0" width="324" y="0" height="216"/></clipPath><clipPath id="0c66719dd6"><path d="M 0.0625 0 L 323.6875 0 L 323.6875 215.75 L 0.0625 215.75 Z M 0.0625 0 " clip-rule="nonzero"/></clipPath><clipPath id="272a3ab92a"><path d="M 22.535156 0 L 301.332031 0 C 313.746094 0 323.804688 10.0625 323.804688 22.472656 L 323.804688 193.5 C 323.804688 205.910156 313.746094 215.972656 301.332031 215.972656 L 22.535156 215.972656 C 10.125 215.972656 0.0625 205.910156 0.0625 193.5 L 0.0625 22.472656 C 0.0625 10.0625 10.125 0 22.535156 0 Z M 22.535156 0 " clip-rule="nonzero"/></clipPath><clipPath id="d4b0b3a8d3"><path d="M 131.890625 24.671875 L 222.699219 24.671875 L 222.699219 38.953125 L 131.890625 38.953125 Z M 131.890625 24.671875 " clip-rule="nonzero"/></clipPath><clipPath id="c763517c03"><path d="M 139.03125 24.671875 L 215.546875 24.671875 C 219.492188 24.671875 222.6875 27.871094 222.6875 31.8125 C 222.6875 35.757812 219.492188 38.953125 215.546875 38.953125 L 139.03125 38.953125 C 135.085938 38.953125 131.890625 35.757812 131.890625 31.8125 C 131.890625 27.871094 135.085938 24.671875 139.03125 24.671875 Z M 139.03125 24.671875 " clip-rule="nonzero"/></clipPath><clipPath id="32a22f3962"><path d="M 0.890625 0.671875 L 91.699219 0.671875 L 91.699219 14.953125 L 0.890625 14.953125 Z M 0.890625 0.671875 " clip-rule="nonzero"/></clipPath><clipPath id="9796a1bf0d"><path d="M 8.03125 0.671875 L 84.546875 0.671875 C 88.492188 0.671875 91.6875 3.871094 91.6875 7.8125 C 91.6875 11.757812 88.492188 14.953125 84.546875 14.953125 L 8.03125 14.953125 C 4.085938 14.953125 0.890625 11.757812 0.890625 7.8125 C 0.890625 3.871094 4.085938 0.671875 8.03125 0.671875 Z M 8.03125 0.671875 " clip-rule="nonzero"/></clipPath><clipPath id="5a05a716b7"><rect x="0" width="92" y="0" height="15"/></clipPath><clipPath id="4bf81b80a6"><path d="M 236.109375 24.671875 L 299.195312 24.671875 L 299.195312 38.953125 L 236.109375 38.953125 Z M 236.109375 24.671875 " clip-rule="nonzero"/></clipPath><clipPath id="0e27aa774c"><path d="M 243.246094 24.671875 L 292.015625 24.671875 C 295.957031 24.671875 299.152344 27.871094 299.152344 31.8125 C 299.152344 35.757812 295.957031 38.953125 292.015625 38.953125 L 243.246094 38.953125 C 239.304688 38.953125 236.109375 35.757812 236.109375 31.8125 C 236.109375 27.871094 239.304688 24.671875 243.246094 24.671875 Z M 243.246094 24.671875 " clip-rule="nonzero"/></clipPath><clipPath id="fc52941206"><path d="M 0.109375 0.671875 L 63.195312 0.671875 L 63.195312 14.953125 L 0.109375 14.953125 Z M 0.109375 0.671875 " clip-rule="nonzero"/></clipPath><clipPath id="ca861ad9a6"><path d="M 7.246094 0.671875 L 56.015625 0.671875 C 59.957031 0.671875 63.152344 3.871094 63.152344 7.8125 C 63.152344 11.757812 59.957031 14.953125 56.015625 14.953125 L 7.246094 14.953125 C 3.304688 14.953125 0.109375 11.757812 0.109375 7.8125 C 0.109375 3.871094 3.304688 0.671875 7.246094 0.671875 Z M 7.246094 0.671875 " clip-rule="nonzero"/></clipPath><clipPath id="950e4367cc"><rect x="0" width="64" y="0" height="15"/></clipPath><clipPath id="3e91e2ea6b"><path d="M 24.480469 18.953125 L 79.574219 18.953125 L 79.574219 72.785156 L 24.480469 72.785156 Z M 24.480469 18.953125 " clip-rule="nonzero"/></clipPath><clipPath id="85f0eaf5dd"><path d="M 52.023438 18.953125 C 36.8125 18.953125 24.480469 31.003906 24.480469 45.871094 C 24.480469 60.734375 36.8125 72.785156 52.023438 72.785156 C 67.238281 72.785156 79.570312 60.734375 79.570312 45.871094 C 79.570312 31.003906 67.238281 18.953125 52.023438 18.953125 Z M 52.023438 18.953125 " clip-rule="nonzero"/></clipPath><clipPath id="fc6c3603e7"><path d="M 0.480469 0.953125 L 55.574219 0.953125 L 55.574219 54.785156 L 0.480469 54.785156 Z M 0.480469 0.953125 " clip-rule="nonzero"/></clipPath><clipPath id="25d5a2df53"><path d="M 28.023438 0.953125 C 12.8125 0.953125 0.480469 13.003906 0.480469 27.871094 C 0.480469 42.734375 12.8125 54.785156 28.023438 54.785156 C 43.238281 54.785156 55.570312 42.734375 55.570312 27.871094 C 55.570312 13.003906 43.238281 0.953125 28.023438 0.953125 Z M 28.023438 0.953125 " clip-rule="nonzero"/></clipPath><clipPath id="2400332e66"><rect x="0" width="56" y="0" height="55"/></clipPath><clipPath id="3bb6d20637"><path d="M 19.605469 82.121094 L 109.210938 82.121094 L 109.210938 105.945312 L 19.605469 105.945312 Z M 19.605469 82.121094 " clip-rule="nonzero"/></clipPath><clipPath id="9917cca55a"><path d="M 24.097656 82.121094 L 104.632812 82.121094 C 107.117188 82.121094 109.128906 84.136719 109.128906 86.617188 L 109.128906 101.449219 C 109.128906 103.929688 107.117188 105.945312 104.632812 105.945312 L 24.097656 105.945312 C 21.617188 105.945312 19.605469 103.929688 19.605469 101.449219 L 19.605469 86.617188 C 19.605469 84.136719 21.617188 82.121094 24.097656 82.121094 Z M 24.097656 82.121094 " clip-rule="nonzero"/></clipPath><clipPath id="04c1327b4d"><path d="M 0.605469 0.121094 L 90.136719 0.121094 L 90.136719 23.945312 L 0.605469 23.945312 Z M 0.605469 0.121094 " clip-rule="nonzero"/></clipPath><clipPath id="1518883214"><path d="M 5.097656 0.121094 L 85.632812 0.121094 C 88.117188 0.121094 90.128906 2.136719 90.128906 4.617188 L 90.128906 19.449219 C 90.128906 21.929688 88.117188 23.945312 85.632812 23.945312 L 5.097656 23.945312 C 2.617188 23.945312 0.605469 21.929688 0.605469 19.449219 L 0.605469 4.617188 C 0.605469 2.136719 2.617188 0.121094 5.097656 0.121094 Z M 5.097656 0.121094 " clip-rule="nonzero"/></clipPath><clipPath id="9537ac66a7"><rect x="0" width="91" y="0" height="24"/></clipPath><clipPath id="63d90fa053"><path d="M 131.890625 66.757812 L 307.992188 66.757812 L 307.992188 196.675781 L 131.890625 196.675781 Z M 131.890625 66.757812 " clip-rule="nonzero"/></clipPath><clipPath id="8300f64927"><path d="M 139.382812 66.757812 L 300.109375 66.757812 C 302.097656 66.757812 304.003906 67.546875 305.40625 68.953125 C 306.8125 70.355469 307.601562 72.261719 307.601562 74.25 L 307.601562 189.183594 C 307.601562 191.171875 306.8125 193.078125 305.40625 194.484375 C 304.003906 195.886719 302.097656 196.675781 300.109375 196.675781 L 139.382812 196.675781 C 137.394531 196.675781 135.488281 195.886719 134.085938 194.484375 C 132.679688 193.078125 131.890625 191.171875 131.890625 189.183594 L 131.890625 74.25 C 131.890625 72.261719 132.679688 70.355469 134.085938 68.953125 C 135.488281 67.546875 137.394531 66.757812 139.382812 66.757812 Z M 139.382812 66.757812 " clip-rule="nonzero"/></clipPath><clipPath id="83706826c9"><path d="M 0.890625 0.757812 L 176.628906 0.757812 L 176.628906 130.675781 L 0.890625 130.675781 Z M 0.890625 0.757812 " clip-rule="nonzero"/></clipPath><clipPath id="3ff3a6963c"><path d="M 8.382812 0.757812 L 169.109375 0.757812 C 171.097656 0.757812 173.003906 1.546875 174.40625 2.953125 C 175.8125 4.355469 176.601562 6.261719 176.601562 8.25 L 176.601562 123.183594 C 176.601562 125.171875 175.8125 127.078125 174.40625 128.484375 C 173.003906 129.886719 171.097656 130.675781 169.109375 130.675781 L 8.382812 130.675781 C 6.394531 130.675781 4.488281 129.886719 3.085938 128.484375 C 1.679688 127.078125 0.890625 125.171875 0.890625 123.183594 L 0.890625 8.25 C 0.890625 6.261719 1.679688 4.355469 3.085938 2.953125 C 4.488281 1.546875 6.394531 0.757812 8.382812 0.757812 Z M 8.382812 0.757812 " clip-rule="nonzero"/></clipPath><clipPath id="46e2f395c0"><rect x="0" width="177" y="0" height="131"/></clipPath><clipPath id="181d91a9dc"><path d="M 105 0 L 132 0 L 132 216.5 L 105 216.5 Z M 105 0 " clip-rule="nonzero"/></clipPath><clipPath id="bb0f02b2b9"><path d="M 21.925781 114.933594 L 84.976562 114.933594 L 84.976562 123.945312 L 21.925781 123.945312 Z M 21.925781 114.933594 " clip-rule="nonzero"/></clipPath><clipPath id="1c90eeb142"><path d="M 26.429688 114.933594 L 80.464844 114.933594 C 81.660156 114.933594 82.804688 115.40625 83.652344 116.253906 C 84.496094 117.097656 84.972656 118.246094 84.972656 119.441406 C 84.972656 120.632812 84.496094 121.78125 83.652344 122.625 C 82.804688 123.472656 81.660156 123.945312 80.464844 123.945312 L 26.429688 123.945312 C 25.234375 123.945312 24.089844 123.472656 23.246094 122.625 C 22.398438 121.78125 21.925781 120.632812 21.925781 119.441406 C 21.925781 118.246094 22.398438 117.097656 23.246094 116.253906 C 24.089844 115.40625 25.234375 114.933594 26.429688 114.933594 Z M 26.429688 114.933594 " clip-rule="nonzero"/></clipPath><clipPath id="b23aa323be"><path d="M 0.925781 0.933594 L 63.976562 0.933594 L 63.976562 9.945312 L 0.925781 9.945312 Z M 0.925781 0.933594 " clip-rule="nonzero"/></clipPath><clipPath id="bc3db8064e"><path d="M 5.429688 0.933594 L 59.464844 0.933594 C 60.660156 0.933594 61.804688 1.40625 62.652344 2.253906 C 63.496094 3.097656 63.972656 4.246094 63.972656 5.441406 C 63.972656 6.632812 63.496094 7.78125 62.652344 8.625 C 61.804688 9.472656 60.660156 9.945312 59.464844 9.945312 L 5.429688 9.945312 C 4.234375 9.945312 3.089844 9.472656 2.246094 8.625 C 1.398438 7.78125 0.925781 6.632812 0.925781 5.441406 C 0.925781 4.246094 1.398438 3.097656 2.246094 2.253906 C 3.089844 1.40625 4.234375 0.933594 5.429688 0.933594 Z M 5.429688 0.933594 " clip-rule="nonzero"/></clipPath><clipPath id="606add2ae3"><rect x="0" width="64" y="0" height="10"/></clipPath><clipPath id="164af80069"><path d="M 21.925781 128.890625 L 84.976562 128.890625 L 84.976562 137.902344 L 21.925781 137.902344 Z M 21.925781 128.890625 " clip-rule="nonzero"/></clipPath><clipPath id="f0ce45a9ca"><path d="M 26.429688 128.890625 L 80.464844 128.890625 C 81.660156 128.890625 82.804688 129.363281 83.652344 130.210938 C 84.496094 131.054688 84.972656 132.203125 84.972656 133.394531 C 84.972656 134.589844 84.496094 135.738281 83.652344 136.582031 C 82.804688 137.429688 81.660156 137.902344 80.464844 137.902344 L 26.429688 137.902344 C 25.234375 137.902344 24.089844 137.429688 23.246094 136.582031 C 22.398438 135.738281 21.925781 134.589844 21.925781 133.394531 C 21.925781 132.203125 22.398438 131.054688 23.246094 130.210938 C 24.089844 129.363281 25.234375 128.890625 26.429688 128.890625 Z M 26.429688 128.890625 " clip-rule="nonzero"/></clipPath><clipPath id="9e4c7bfbb9"><path d="M 0.925781 0.890625 L 63.976562 0.890625 L 63.976562 9.902344 L 0.925781 9.902344 Z M 0.925781 0.890625 " clip-rule="nonzero"/></clipPath><clipPath id="2531c36743"><path d="M 5.429688 0.890625 L 59.464844 0.890625 C 60.660156 0.890625 61.804688 1.363281 62.652344 2.210938 C 63.496094 3.054688 63.972656 4.203125 63.972656 5.394531 C 63.972656 6.589844 63.496094 7.738281 62.652344 8.582031 C 61.804688 9.429688 60.660156 9.902344 59.464844 9.902344 L 5.429688 9.902344 C 4.234375 9.902344 3.089844 9.429688 2.246094 8.582031 C 1.398438 7.738281 0.925781 6.589844 0.925781 5.394531 C 0.925781 4.203125 1.398438 3.054688 2.246094 2.210938 C 3.089844 1.363281 4.234375 0.890625 5.429688 0.890625 Z M 5.429688 0.890625 " clip-rule="nonzero"/></clipPath><clipPath id="3e7bcb2596"><rect x="0" width="64" y="0" height="10"/></clipPath><clipPath id="52f28f7b43"><path d="M 21.925781 143.296875 L 84.976562 143.296875 L 84.976562 152.308594 L 21.925781 152.308594 Z M 21.925781 143.296875 " clip-rule="nonzero"/></clipPath><clipPath id="6aa54b6439"><path d="M 26.429688 143.296875 L 80.464844 143.296875 C 81.660156 143.296875 82.804688 143.773438 83.652344 144.617188 C 84.496094 145.460938 84.972656 146.609375 84.972656 147.804688 C 84.972656 149 84.496094 150.144531 83.652344 150.992188 C 82.804688 151.835938 81.660156 152.308594 80.464844 152.308594 L 26.429688 152.308594 C 25.234375 152.308594 24.089844 151.835938 23.246094 150.992188 C 22.398438 150.144531 21.925781 149 21.925781 147.804688 C 21.925781 146.609375 22.398438 145.460938 23.246094 144.617188 C 24.089844 143.773438 25.234375 143.296875 26.429688 143.296875 Z M 26.429688 143.296875 " clip-rule="nonzero"/></clipPath><clipPath id="6032c2f7ed"><path d="M 0.925781 0.296875 L 63.976562 0.296875 L 63.976562 9.308594 L 0.925781 9.308594 Z M 0.925781 0.296875 " clip-rule="nonzero"/></clipPath><clipPath id="f357cd625d"><path d="M 5.429688 0.296875 L 59.464844 0.296875 C 60.660156 0.296875 61.804688 0.773438 62.652344 1.617188 C 63.496094 2.460938 63.972656 3.609375 63.972656 4.804688 C 63.972656 6 63.496094 7.144531 62.652344 7.992188 C 61.804688 8.835938 60.660156 9.308594 59.464844 9.308594 L 5.429688 9.308594 C 4.234375 9.308594 3.089844 8.835938 2.246094 7.992188 C 1.398438 7.144531 0.925781 6 0.925781 4.804688 C 0.925781 3.609375 1.398438 2.460938 2.246094 1.617188 C 3.089844 0.773438 4.234375 0.296875 5.429688 0.296875 Z M 5.429688 0.296875 " clip-rule="nonzero"/></clipPath><clipPath id="3dd32af496"><rect x="0" width="64" y="0" height="10"/></clipPath><clipPath id="c06b0e938c"><path d="M 19.605469 175.578125 L 109.210938 175.578125 L 109.210938 199.398438 L 19.605469 199.398438 Z M 19.605469 175.578125 " clip-rule="nonzero"/></clipPath><clipPath id="cd8164450b"><path d="M 24.097656 175.578125 L 104.632812 175.578125 C 107.117188 175.578125 109.128906 177.589844 109.128906 180.074219 L 109.128906 194.90625 C 109.128906 197.386719 107.117188 199.398438 104.632812 199.398438 L 24.097656 199.398438 C 21.617188 199.398438 19.605469 197.386719 19.605469 194.90625 L 19.605469 180.074219 C 19.605469 177.589844 21.617188 175.578125 24.097656 175.578125 Z M 24.097656 175.578125 " clip-rule="nonzero"/></clipPath><clipPath id="72e4686a2a"><path d="M 0.605469 0.578125 L 90.136719 0.578125 L 90.136719 24.398438 L 0.605469 24.398438 Z M 0.605469 0.578125 " clip-rule="nonzero"/></clipPath><clipPath id="32e0150a35"><path d="M 5.097656 0.578125 L 85.632812 0.578125 C 88.117188 0.578125 90.128906 2.589844 90.128906 5.074219 L 90.128906 19.90625 C 90.128906 22.386719 88.117188 24.398438 85.632812 24.398438 L 5.097656 24.398438 C 2.617188 24.398438 0.605469 22.386719 0.605469 19.90625 L 0.605469 5.074219 C 0.605469 2.589844 2.617188 0.578125 5.097656 0.578125 Z M 5.097656 0.578125 " clip-rule="nonzero"/></clipPath><clipPath id="aaee3e406f"><rect x="0" width="91" y="0" height="25"/></clipPath><clipPath id="b9e6c35d33"><path d="M 105 42 L 324.4375 42 L 324.4375 70 L 105 70 Z M 105 42 " clip-rule="nonzero"/></clipPath></defs><g clip-path="url(#9497bbcd62)"><g clip-path="url(#4d1aab6e1b)"><g><g clip-path="url(#9816c8753a)"><g clip-path="url(#bdd5a2bb2e)"><g clip-path="url(#39ad0d3781)"><path fill="#ffffff" d="M 0.0625 0 L 324.03125 0 L 324.03125 215.980469 L 0.0625 215.980469 Z M 0.0625 0 " fill-opacity="1" fill-rule="nonzero"/></g></g></g></g></g></g><g clip-path="url(#0c66719dd6)"><g clip-path="url(#272a3ab92a)"><path stroke-linecap="butt" transform="matrix(0.749136, 0, 0, 0.749136, 0.0622157, 0.0000310825)" fill="none" stroke-linejoin="miter" d="M 29.998483 -0.0000414911 L 402.156427 -0.0000414911 C 418.727603 -0.0000414911 432.154531 13.432101 432.154531 29.998062 L 432.154531 258.297553 C 432.154531 274.863514 418.727603 288.295657 402.156427 288.295657 L 29.998483 288.295657 C 13.432522 288.295657 0.000379469 274.863514 0.000379469 258.297553 L 0.000379469 29.998062 C 0.000379469 13.432101 13.432522 -0.0000414911 29.998483 -0.0000414911 Z M 29.998483 -0.0000414911 " stroke="#c5c5c5" stroke-width="4" stroke-opacity="1" stroke-miterlimit="4"/></g></g><g clip-path="url(#d4b0b3a8d3)"><g clip-path="url(#c763517c03)"><g transform="matrix(1, 0, 0, 1, 131, 24)"><g clip-path="url(#5a05a716b7)"><g clip-path="url(#32a22f3962)"><g clip-path="url(#9796a1bf0d)"><path fill="#10b981" d="M 0.890625 0.671875 L 91.699219 0.671875 L 91.699219 14.953125 L 0.890625 14.953125 Z M 0.890625 0.671875 " fill-opacity="1" fill-rule="nonzero"/></g></g></g></g></g></g><g clip-path="url(#4bf81b80a6)"><g clip-path="url(#0e27aa774c)"><g transform="matrix(1, 0, 0, 1, 236, 24)"><g clip-path="url(#950e4367cc)"><g clip-path="url(#fc52941206)"><g clip-path="url(#ca861ad9a6)"><path fill="#a2a2a2" d="M 0.109375 0.671875 L 63.140625 0.671875 L 63.140625 14.953125 L 0.109375 14.953125 Z M 0.109375 0.671875 " fill-opacity="1" fill-rule="nonzero"/></g></g></g></g></g></g><g clip-path="url(#3e91e2ea6b)"><g clip-path="url(#85f0eaf5dd)"><g transform="matrix(1, 0, 0, 1, 24, 18)"><g clip-path="url(#2400332e66)"><g clip-path="url(#fc6c3603e7)"><g clip-path="url(#25d5a2df53)"><path fill="#10b981" d="M 0.480469 0.953125 L 55.574219 0.953125 L 55.574219 54.785156 L 0.480469 54.785156 Z M 0.480469 0.953125 " fill-opacity="1" fill-rule="nonzero"/></g></g></g></g></g></g><g clip-path="url(#3bb6d20637)"><g clip-path="url(#9917cca55a)"><g transform="matrix(1, 0, 0, 1, 19, 82)"><g clip-path="url(#9537ac66a7)"><g clip-path="url(#04c1327b4d)"><g clip-path="url(#1518883214)"><path fill="#616262" d="M 0.605469 0.121094 L 90.121094 0.121094 L 90.121094 23.945312 L 0.605469 23.945312 Z M 0.605469 0.121094 " fill-opacity="1" fill-rule="nonzero"/></g></g></g></g></g></g><g clip-path="url(#63d90fa053)"><g clip-path="url(#8300f64927)"><g transform="matrix(1, 0, 0, 1, 131, 66)"><g clip-path="url(#46e2f395c0)"><g clip-path="url(#83706826c9)"><g clip-path="url(#3ff3a6963c)"><path fill="#dfdfdf" d="M 0.890625 0.757812 L 176.484375 0.757812 L 176.484375 130.675781 L 0.890625 130.675781 Z M 0.890625 0.757812 " fill-opacity="1" fill-rule="nonzero"/></g></g></g></g></g></g><g clip-path="url(#181d91a9dc)"><path stroke-linecap="butt" transform="matrix(-0.00255279, -0.749132, 0.749132, -0.00255279, 117.919049, 213.394126)" fill="none" stroke-linejoin="miter" d="M -0.000438497 1.500296 L 279.526363 1.498599 " stroke="#e3e5e5" stroke-width="3" stroke-opacity="1" stroke-miterlimit="4"/></g><g clip-path="url(#bb0f02b2b9)"><g clip-path="url(#1c90eeb142)"><g transform="matrix(1, 0, 0, 1, 21, 114)"><g clip-path="url(#606add2ae3)"><g clip-path="url(#b23aa323be)"><g clip-path="url(#bc3db8064e)"><path fill="#a2a2a2" d="M 0.925781 0.933594 L 63.976562 0.933594 L 63.976562 9.945312 L 0.925781 9.945312 Z M 0.925781 0.933594 " fill-opacity="1" fill-rule="nonzero"/></g></g></g></g></g></g><g clip-path="url(#164af80069)"><g clip-path="url(#f0ce45a9ca)"><g transform="matrix(1, 0, 0, 1, 21, 128)"><g clip-path="url(#3e7bcb2596)"><g clip-path="url(#9e4c7bfbb9)"><g clip-path="url(#2531c36743)"><path fill="#a2a2a2" d="M 0.925781 0.890625 L 63.976562 0.890625 L 63.976562 9.902344 L 0.925781 9.902344 Z M 0.925781 0.890625 " fill-opacity="1" fill-rule="nonzero"/></g></g></g></g></g></g><g clip-path="url(#52f28f7b43)"><g clip-path="url(#6aa54b6439)"><g transform="matrix(1, 0, 0, 1, 21, 143)"><g clip-path="url(#3dd32af496)"><g clip-path="url(#6032c2f7ed)"><g clip-path="url(#f357cd625d)"><path fill="#a2a2a2" d="M 0.925781 0.296875 L 63.976562 0.296875 L 63.976562 9.308594 L 0.925781 9.308594 Z M 0.925781 0.296875 " fill-opacity="1" fill-rule="nonzero"/></g></g></g></g></g></g><g clip-path="url(#c06b0e938c)"><g clip-path="url(#cd8164450b)"><g transform="matrix(1, 0, 0, 1, 19, 175)"><g clip-path="url(#aaee3e406f)"><g clip-path="url(#72e4686a2a)"><g clip-path="url(#32e0150a35)"><path fill="#92e7cb" d="M 0.605469 0.578125 L 90.121094 0.578125 L 90.121094 24.398438 L 0.605469 24.398438 Z M 0.605469 0.578125 " fill-opacity="1" fill-rule="nonzero"/></g></g></g></g></g></g><g clip-path="url(#b9e6c35d33)"><path stroke-linecap="butt" transform="matrix(-0.749125, 0.00401276, -0.00401276, -0.749125, 319.770005, 56.83409)" fill="none" stroke-linejoin="miter" d="M -0.00218441 1.499274 L 268.889585 1.50044 " stroke="#e3e5e5" stroke-width="3" stroke-opacity="1" stroke-miterlimit="4"/></g></svg>