<svg xmlns="http://www.w3.org/2000/svg" xmlns:xlink="http://www.w3.org/1999/xlink" width="432" zoomAndPan="magnify" viewBox="0 0 324 216.749995" height="289" preserveAspectRatio="xMidYMid meet" version="1.0"><defs><clipPath id="adfb13fefe"><path d="M 0.1875 0 L 323.3125 0 L 323.3125 215.980469 L 0.1875 215.980469 Z M 0.1875 0 " clip-rule="nonzero"/></clipPath><clipPath id="ed09961cd6"><path d="M 22.660156 0 L 300.71875 0 C 313.128906 0 323.191406 10.0625 323.191406 22.472656 L 323.191406 193.503906 C 323.191406 205.917969 313.128906 215.980469 300.71875 215.980469 L 22.660156 215.980469 C 10.25 215.980469 0.1875 205.917969 0.1875 193.503906 L 0.1875 22.472656 C 0.1875 10.0625 10.25 0 22.660156 0 Z M 22.660156 0 " clip-rule="nonzero"/></clipPath><clipPath id="211307553b"><path d="M 0.1875 0 L 323.3125 0 L 323.3125 215.980469 L 0.1875 215.980469 Z M 0.1875 0 " clip-rule="nonzero"/></clipPath><clipPath id="b28680ee17"><path d="M 22.660156 0 L 300.71875 0 C 313.128906 0 323.191406 10.0625 323.191406 22.472656 L 323.191406 193.503906 C 323.191406 205.917969 313.128906 215.980469 300.71875 215.980469 L 22.660156 215.980469 C 10.25 215.980469 0.1875 205.917969 0.1875 193.503906 L 0.1875 22.472656 C 0.1875 10.0625 10.25 0 22.660156 0 Z M 22.660156 0 " clip-rule="nonzero"/></clipPath><clipPath id="a6f5cf0181"><rect x="0" width="324" y="0" height="216"/></clipPath><clipPath id="e560ea5233"><path d="M 0.1875 0 L 323.0625 0 L 323.0625 215.75 L 0.1875 215.75 Z M 0.1875 0 " clip-rule="nonzero"/></clipPath><clipPath id="97b1a4b47c"><path d="M 22.660156 0 L 300.707031 0 C 313.121094 0 323.179688 10.0625 323.179688 22.472656 L 323.179688 193.5 C 323.179688 205.910156 313.121094 215.972656 300.707031 215.972656 L 22.660156 215.972656 C 10.25 215.972656 0.1875 205.910156 0.1875 193.5 L 0.1875 22.472656 C 0.1875 10.0625 10.25 0 22.660156 0 Z M 22.660156 0 " clip-rule="nonzero"/></clipPath><clipPath id="2448398b3a"><path d="M 52.667969 2.164062 L 322 2.164062 L 322 214.058594 L 52.667969 214.058594 Z M 52.667969 2.164062 " clip-rule="nonzero"/></clipPath><clipPath id="5e17510912"><path d="M 75.144531 2.164062 L 299.246094 2.164062 C 311.65625 2.164062 321.71875 12.226562 321.71875 24.636719 L 321.71875 191.582031 C 321.71875 203.996094 311.65625 214.058594 299.246094 214.058594 L 75.144531 214.058594 C 62.730469 214.058594 52.667969 203.996094 52.667969 191.582031 L 52.667969 24.636719 C 52.667969 12.226562 62.730469 2.164062 75.144531 2.164062 Z M 75.144531 2.164062 " clip-rule="nonzero"/></clipPath><clipPath id="e45642cf15"><path d="M 0.667969 0.164062 L 269.894531 0.164062 L 269.894531 212.058594 L 0.667969 212.058594 Z M 0.667969 0.164062 " clip-rule="nonzero"/></clipPath><clipPath id="9e245d688c"><path d="M 23.144531 0.164062 L 247.246094 0.164062 C 259.65625 0.164062 269.71875 10.226562 269.71875 22.636719 L 269.71875 189.582031 C 269.71875 201.996094 259.65625 212.058594 247.246094 212.058594 L 23.144531 212.058594 C 10.730469 212.058594 0.667969 201.996094 0.667969 189.582031 L 0.667969 22.636719 C 0.667969 10.226562 10.730469 0.164062 23.144531 0.164062 Z M 23.144531 0.164062 " clip-rule="nonzero"/></clipPath><clipPath id="9e8b945c4c"><rect x="0" width="270" y="0" height="213"/></clipPath><clipPath id="46abe5896a"><path d="M 52.667969 2.164062 L 89.175781 2.164062 L 89.175781 214.058594 L 52.667969 214.058594 Z M 52.667969 2.164062 " clip-rule="nonzero"/></clipPath><clipPath id="78902d52ae"><path d="M 0.667969 0.164062 L 37.175781 0.164062 L 37.175781 212.058594 L 0.667969 212.058594 Z M 0.667969 0.164062 " clip-rule="nonzero"/></clipPath><clipPath id="6a850a5423"><rect x="0" width="38" y="0" height="213"/></clipPath><clipPath id="fb2731ed63"><path d="M 74.148438 80.558594 L 303.777344 80.558594 L 303.777344 198.839844 L 74.148438 198.839844 Z M 74.148438 80.558594 " clip-rule="nonzero"/></clipPath><clipPath id="5ae6e944c9"><path d="M 303.777344 88.050781 L 303.777344 191.351562 C 303.777344 193.335938 302.988281 195.242188 301.585938 196.648438 C 300.179688 198.050781 298.273438 198.839844 296.285156 198.839844 L 81.835938 198.839844 C 79.851562 198.839844 77.945312 198.050781 76.539062 196.648438 C 75.136719 195.242188 74.347656 193.335938 74.347656 191.351562 L 74.347656 88.050781 C 74.347656 86.066406 75.136719 84.160156 76.539062 82.753906 C 77.945312 81.351562 79.851562 80.558594 81.835938 80.558594 L 296.285156 80.558594 C 298.273438 80.558594 300.179688 81.351562 301.585938 82.753906 C 302.988281 84.160156 303.777344 86.066406 303.777344 88.050781 Z M 303.777344 88.050781 " clip-rule="nonzero"/></clipPath><clipPath id="b9bd4703ed"><path d="M 0.261719 0.558594 L 229.777344 0.558594 L 229.777344 118.839844 L 0.261719 118.839844 Z M 0.261719 0.558594 " clip-rule="nonzero"/></clipPath><clipPath id="cf458ef767"><path d="M 229.777344 8.050781 L 229.777344 111.351562 C 229.777344 113.335938 228.988281 115.242188 227.585938 116.648438 C 226.179688 118.050781 224.273438 118.839844 222.285156 118.839844 L 7.835938 118.839844 C 5.851562 118.839844 3.945312 118.050781 2.539062 116.648438 C 1.136719 115.242188 0.347656 113.335938 0.347656 111.351562 L 0.347656 8.050781 C 0.347656 6.066406 1.136719 4.160156 2.539062 2.753906 C 3.945312 1.351562 5.851562 0.558594 7.835938 0.558594 L 222.285156 0.558594 C 224.273438 0.558594 226.179688 1.351562 227.585938 2.753906 C 228.988281 4.160156 229.777344 6.066406 229.777344 8.050781 Z M 229.777344 8.050781 " clip-rule="nonzero"/></clipPath><clipPath id="e4e41f0ce0"><rect x="0" width="230" y="0" height="119"/></clipPath><clipPath id="3da39e5b88"><path d="M 67.566406 17.875 L 108.972656 17.875 L 108.972656 57.875 L 67.566406 57.875 Z M 67.566406 17.875 " clip-rule="nonzero"/></clipPath><clipPath id="a398f13a87"><path d="M 88.253906 17.875 C 76.828125 17.875 67.566406 26.828125 67.566406 37.875 C 67.566406 48.917969 76.828125 57.875 88.253906 57.875 C 99.675781 57.875 108.9375 48.917969 108.9375 37.875 C 108.9375 26.828125 99.675781 17.875 88.253906 17.875 Z M 88.253906 17.875 " clip-rule="nonzero"/></clipPath><clipPath id="e0d83ab6f8"><path d="M 0.566406 0.875 L 41.972656 0.875 L 41.972656 40.875 L 0.566406 40.875 Z M 0.566406 0.875 " clip-rule="nonzero"/></clipPath><clipPath id="3ab80c61e2"><path d="M 21.253906 0.875 C 9.828125 0.875 0.566406 9.828125 0.566406 20.875 C 0.566406 31.917969 9.828125 40.875 21.253906 40.875 C 32.675781 40.875 41.9375 31.917969 41.9375 20.875 C 41.9375 9.828125 32.675781 0.875 21.253906 0.875 Z M 21.253906 0.875 " clip-rule="nonzero"/></clipPath><clipPath id="5f59ff9fda"><rect x="0" width="42" y="0" height="41"/></clipPath><clipPath id="ab50118e48"><path d="M 0.1875 53 L 323.8125 53 L 323.8125 81 L 0.1875 81 Z M 0.1875 53 " clip-rule="nonzero"/></clipPath><clipPath id="eb68acffaa"><path d="M 14.804688 30.734375 L 36.234375 30.734375 L 36.234375 50.90625 L 14.804688 50.90625 Z M 14.804688 30.734375 " clip-rule="nonzero"/></clipPath><clipPath id="48c7ea1548"><path d="M 16.300781 30.734375 L 34.714844 30.734375 C 35.109375 30.734375 35.492188 30.890625 35.773438 31.171875 C 36.054688 31.453125 36.210938 31.835938 36.210938 32.234375 L 36.210938 49.410156 C 36.210938 49.804688 36.054688 50.1875 35.773438 50.46875 C 35.492188 50.75 35.109375 50.90625 34.714844 50.90625 L 16.300781 50.90625 C 15.902344 50.90625 15.523438 50.75 15.242188 50.46875 C 14.960938 50.1875 14.804688 49.804688 14.804688 49.410156 L 14.804688 32.234375 C 14.804688 31.835938 14.960938 31.453125 15.242188 31.171875 C 15.523438 30.890625 15.902344 30.734375 16.300781 30.734375 Z M 16.300781 30.734375 " clip-rule="nonzero"/></clipPath><clipPath id="c4340b1d1a"><path d="M 0.804688 0.734375 L 22.234375 0.734375 L 22.234375 20.90625 L 0.804688 20.90625 Z M 0.804688 0.734375 " clip-rule="nonzero"/></clipPath><clipPath id="ab0b27d3cd"><path d="M 2.300781 0.734375 L 20.714844 0.734375 C 21.109375 0.734375 21.492188 0.890625 21.773438 1.171875 C 22.054688 1.453125 22.210938 1.835938 22.210938 2.234375 L 22.210938 19.410156 C 22.210938 19.804688 22.054688 20.1875 21.773438 20.46875 C 21.492188 20.75 21.109375 20.90625 20.714844 20.90625 L 2.300781 20.90625 C 1.902344 20.90625 1.523438 20.75 1.242188 20.46875 C 0.960938 20.1875 0.804688 19.804688 0.804688 19.410156 L 0.804688 2.234375 C 0.804688 1.835938 0.960938 1.453125 1.242188 1.171875 C 1.523438 0.890625 1.902344 0.734375 2.300781 0.734375 Z M 2.300781 0.734375 " clip-rule="nonzero"/></clipPath><clipPath id="1d65952a1d"><rect x="0" width="23" y="0" height="21"/></clipPath><clipPath id="dace0863b0"><path d="M 14.804688 64.863281 L 36.234375 64.863281 L 36.234375 85.035156 L 14.804688 85.035156 Z M 14.804688 64.863281 " clip-rule="nonzero"/></clipPath><clipPath id="284e384571"><path d="M 16.300781 64.863281 L 34.714844 64.863281 C 35.109375 64.863281 35.492188 65.023438 35.773438 65.304688 C 36.054688 65.582031 36.210938 65.964844 36.210938 66.363281 L 36.210938 83.539062 C 36.210938 83.9375 36.054688 84.316406 35.773438 84.597656 C 35.492188 84.878906 35.109375 85.035156 34.714844 85.035156 L 16.300781 85.035156 C 15.902344 85.035156 15.523438 84.878906 15.242188 84.597656 C 14.960938 84.316406 14.804688 83.9375 14.804688 83.539062 L 14.804688 66.363281 C 14.804688 65.964844 14.960938 65.582031 15.242188 65.304688 C 15.523438 65.023438 15.902344 64.863281 16.300781 64.863281 Z M 16.300781 64.863281 " clip-rule="nonzero"/></clipPath><clipPath id="80a8b21a8e"><path d="M 0.804688 0.863281 L 22.234375 0.863281 L 22.234375 21.035156 L 0.804688 21.035156 Z M 0.804688 0.863281 " clip-rule="nonzero"/></clipPath><clipPath id="5c44b39155"><path d="M 2.300781 0.863281 L 20.714844 0.863281 C 21.109375 0.863281 21.492188 1.023438 21.773438 1.304688 C 22.054688 1.582031 22.210938 1.964844 22.210938 2.363281 L 22.210938 19.539062 C 22.210938 19.9375 22.054688 20.316406 21.773438 20.597656 C 21.492188 20.878906 21.109375 21.035156 20.714844 21.035156 L 2.300781 21.035156 C 1.902344 21.035156 1.523438 20.878906 1.242188 20.597656 C 0.960938 20.316406 0.804688 19.9375 0.804688 19.539062 L 0.804688 2.363281 C 0.804688 1.964844 0.960938 1.582031 1.242188 1.304688 C 1.523438 1.023438 1.902344 0.863281 2.300781 0.863281 Z M 2.300781 0.863281 " clip-rule="nonzero"/></clipPath><clipPath id="0ac784ffcf"><rect x="0" width="23" y="0" height="22"/></clipPath><clipPath id="9e90a56c04"><path d="M 14.804688 98.992188 L 36.234375 98.992188 L 36.234375 119.167969 L 14.804688 119.167969 Z M 14.804688 98.992188 " clip-rule="nonzero"/></clipPath><clipPath id="2a4d891d32"><path d="M 16.300781 98.992188 L 34.714844 98.992188 C 35.109375 98.992188 35.492188 99.152344 35.773438 99.433594 C 36.054688 99.714844 36.210938 100.09375 36.210938 100.492188 L 36.210938 117.667969 C 36.210938 118.066406 36.054688 118.445312 35.773438 118.726562 C 35.492188 119.007812 35.109375 119.167969 34.714844 119.167969 L 16.300781 119.167969 C 15.902344 119.167969 15.523438 119.007812 15.242188 118.726562 C 14.960938 118.445312 14.804688 118.066406 14.804688 117.667969 L 14.804688 100.492188 C 14.804688 100.09375 14.960938 99.714844 15.242188 99.433594 C 15.523438 99.152344 15.902344 98.992188 16.300781 98.992188 Z M 16.300781 98.992188 " clip-rule="nonzero"/></clipPath><clipPath id="ac4566c350"><path d="M 0.804688 0.992188 L 22.234375 0.992188 L 22.234375 21.167969 L 0.804688 21.167969 Z M 0.804688 0.992188 " clip-rule="nonzero"/></clipPath><clipPath id="2cb2d68537"><path d="M 2.300781 0.992188 L 20.714844 0.992188 C 21.109375 0.992188 21.492188 1.152344 21.773438 1.433594 C 22.054688 1.714844 22.210938 2.09375 22.210938 2.492188 L 22.210938 19.667969 C 22.210938 20.066406 22.054688 20.445312 21.773438 20.726562 C 21.492188 21.007812 21.109375 21.167969 20.714844 21.167969 L 2.300781 21.167969 C 1.902344 21.167969 1.523438 21.007812 1.242188 20.726562 C 0.960938 20.445312 0.804688 20.066406 0.804688 19.667969 L 0.804688 2.492188 C 0.804688 2.09375 0.960938 1.714844 1.242188 1.433594 C 1.523438 1.152344 1.902344 0.992188 2.300781 0.992188 Z M 2.300781 0.992188 " clip-rule="nonzero"/></clipPath><clipPath id="88c1f7b18d"><rect x="0" width="23" y="0" height="22"/></clipPath><clipPath id="aec224c34e"><path d="M 14.804688 133.121094 L 36.234375 133.121094 L 36.234375 153.296875 L 14.804688 153.296875 Z M 14.804688 133.121094 " clip-rule="nonzero"/></clipPath><clipPath id="bf66c430d0"><path d="M 16.300781 133.121094 L 34.714844 133.121094 C 35.109375 133.121094 35.492188 133.28125 35.773438 133.5625 C 36.054688 133.84375 36.210938 134.222656 36.210938 134.621094 L 36.210938 151.796875 C 36.210938 152.195312 36.054688 152.574219 35.773438 152.855469 C 35.492188 153.136719 35.109375 153.296875 34.714844 153.296875 L 16.300781 153.296875 C 15.902344 153.296875 15.523438 153.136719 15.242188 152.855469 C 14.960938 152.574219 14.804688 152.195312 14.804688 151.796875 L 14.804688 134.621094 C 14.804688 134.222656 14.960938 133.84375 15.242188 133.5625 C 15.523438 133.28125 15.902344 133.121094 16.300781 133.121094 Z M 16.300781 133.121094 " clip-rule="nonzero"/></clipPath><clipPath id="43caf5035d"><path d="M 0.804688 0.121094 L 22.234375 0.121094 L 22.234375 20.296875 L 0.804688 20.296875 Z M 0.804688 0.121094 " clip-rule="nonzero"/></clipPath><clipPath id="48526b29d6"><path d="M 2.300781 0.121094 L 20.714844 0.121094 C 21.109375 0.121094 21.492188 0.28125 21.773438 0.5625 C 22.054688 0.84375 22.210938 1.222656 22.210938 1.621094 L 22.210938 18.796875 C 22.210938 19.195312 22.054688 19.574219 21.773438 19.855469 C 21.492188 20.136719 21.109375 20.296875 20.714844 20.296875 L 2.300781 20.296875 C 1.902344 20.296875 1.523438 20.136719 1.242188 19.855469 C 0.960938 19.574219 0.804688 19.195312 0.804688 18.796875 L 0.804688 1.621094 C 0.804688 1.222656 0.960938 0.84375 1.242188 0.5625 C 1.523438 0.28125 1.902344 0.121094 2.300781 0.121094 Z M 2.300781 0.121094 " clip-rule="nonzero"/></clipPath><clipPath id="f437d5d6c9"><rect x="0" width="23" y="0" height="21"/></clipPath><clipPath id="f799143290"><path d="M 14.804688 167.253906 L 36.234375 167.253906 L 36.234375 187.425781 L 14.804688 187.425781 Z M 14.804688 167.253906 " clip-rule="nonzero"/></clipPath><clipPath id="d64b49aaf6"><path d="M 16.300781 167.253906 L 34.714844 167.253906 C 35.109375 167.253906 35.492188 167.410156 35.773438 167.691406 C 36.054688 167.972656 36.210938 168.351562 36.210938 168.75 L 36.210938 185.925781 C 36.210938 186.324219 36.054688 186.707031 35.773438 186.984375 C 35.492188 187.265625 35.109375 187.425781 34.714844 187.425781 L 16.300781 187.425781 C 15.902344 187.425781 15.523438 187.265625 15.242188 186.984375 C 14.960938 186.707031 14.804688 186.324219 14.804688 185.925781 L 14.804688 168.75 C 14.804688 168.351562 14.960938 167.972656 15.242188 167.691406 C 15.523438 167.410156 15.902344 167.253906 16.300781 167.253906 Z M 16.300781 167.253906 " clip-rule="nonzero"/></clipPath><clipPath id="797c1c3259"><path d="M 0.804688 0.253906 L 22.234375 0.253906 L 22.234375 20.425781 L 0.804688 20.425781 Z M 0.804688 0.253906 " clip-rule="nonzero"/></clipPath><clipPath id="b90cc70187"><path d="M 2.300781 0.253906 L 20.714844 0.253906 C 21.109375 0.253906 21.492188 0.410156 21.773438 0.691406 C 22.054688 0.972656 22.210938 1.351562 22.210938 1.75 L 22.210938 18.925781 C 22.210938 19.324219 22.054688 19.707031 21.773438 19.984375 C 21.492188 20.265625 21.109375 20.425781 20.714844 20.425781 L 2.300781 20.425781 C 1.902344 20.425781 1.523438 20.265625 1.242188 19.984375 C 0.960938 19.707031 0.804688 19.324219 0.804688 18.925781 L 0.804688 1.75 C 0.804688 1.351562 0.960938 0.972656 1.242188 0.691406 C 1.523438 0.410156 1.902344 0.253906 2.300781 0.253906 Z M 2.300781 0.253906 " clip-rule="nonzero"/></clipPath><clipPath id="e5a982e5bc"><rect x="0" width="23" y="0" height="21"/></clipPath><clipPath id="2e20dd5d45"><path d="M 132.414062 35.875 L 221.746094 35.875 L 221.746094 51.980469 L 132.414062 51.980469 Z M 132.414062 35.875 " clip-rule="nonzero"/></clipPath><clipPath id="11b1a572d1"><path d="M 140.464844 35.875 L 213.679688 35.875 C 218.125 35.875 221.730469 39.480469 221.730469 43.925781 C 221.730469 48.375 218.125 51.980469 213.679688 51.980469 L 140.464844 51.980469 C 136.015625 51.980469 132.414062 48.375 132.414062 43.925781 C 132.414062 39.480469 136.015625 35.875 140.464844 35.875 Z M 140.464844 35.875 " clip-rule="nonzero"/></clipPath><clipPath id="63bc2a89fc"><path d="M 0.414062 0.875 L 89.746094 0.875 L 89.746094 16.980469 L 0.414062 16.980469 Z M 0.414062 0.875 " clip-rule="nonzero"/></clipPath><clipPath id="8d4991c198"><path d="M 8.464844 0.875 L 81.679688 0.875 C 86.125 0.875 89.730469 4.480469 89.730469 8.925781 C 89.730469 13.375 86.125 16.980469 81.679688 16.980469 L 8.464844 16.980469 C 4.015625 16.980469 0.414062 13.375 0.414062 8.925781 C 0.414062 4.480469 4.015625 0.875 8.464844 0.875 Z M 8.464844 0.875 " clip-rule="nonzero"/></clipPath><clipPath id="448970b3d2"><rect x="0" width="90" y="0" height="17"/></clipPath><clipPath id="dfacf137e6"><path d="M 132.414062 21.238281 L 182.878906 21.238281 L 182.878906 29.492188 L 132.414062 29.492188 Z M 132.414062 21.238281 " clip-rule="nonzero"/></clipPath><clipPath id="81cbbef27e"><path d="M 136.539062 21.238281 L 178.75 21.238281 C 181.03125 21.238281 182.878906 23.085938 182.878906 25.367188 C 182.878906 27.644531 181.03125 29.492188 178.75 29.492188 L 136.539062 29.492188 C 134.261719 29.492188 132.414062 27.644531 132.414062 25.367188 C 132.414062 23.085938 134.261719 21.238281 136.539062 21.238281 Z M 136.539062 21.238281 " clip-rule="nonzero"/></clipPath><clipPath id="9162591576"><path d="M 0.414062 0.238281 L 50.878906 0.238281 L 50.878906 8.492188 L 0.414062 8.492188 Z M 0.414062 0.238281 " clip-rule="nonzero"/></clipPath><clipPath id="207d2e2546"><path d="M 4.539062 0.238281 L 46.75 0.238281 C 49.03125 0.238281 50.878906 2.085938 50.878906 4.367188 C 50.878906 6.644531 49.03125 8.492188 46.75 8.492188 L 4.539062 8.492188 C 2.261719 8.492188 0.414062 6.644531 0.414062 4.367188 C 0.414062 2.085938 2.261719 0.238281 4.539062 0.238281 Z M 4.539062 0.238281 " clip-rule="nonzero"/></clipPath><clipPath id="d940842df0"><rect x="0" width="51" y="0" height="9"/></clipPath></defs><g clip-path="url(#adfb13fefe)"><g clip-path="url(#ed09961cd6)"><g><g clip-path="url(#a6f5cf0181)"><g clip-path="url(#211307553b)"><g clip-path="url(#b28680ee17)"><path fill="#e3e5e5" d="M 0.1875 0 L 323.3125 0 L 323.3125 215.980469 L 0.1875 215.980469 Z M 0.1875 0 " fill-opacity="1" fill-rule="nonzero"/></g></g></g></g></g></g><g clip-path="url(#e560ea5233)"><g clip-path="url(#97b1a4b47c)"><path stroke-linecap="butt" transform="matrix(0.749136, 0, 0, 0.749136, 0.18664, 0.0000329386)" fill="none" stroke-linejoin="miter" d="M 29.999252 -0.0000439688 L 401.156043 -0.0000439688 C 417.727218 -0.0000439688 431.154146 13.432098 431.154146 29.99806 L 431.154146 258.297551 C 431.154146 274.863512 417.727218 288.295654 401.156043 288.295654 L 29.999252 288.295654 C 13.433291 288.295654 0.00114842 274.863512 0.00114842 258.297551 L 0.00114842 29.99806 C 0.00114842 13.432098 13.433291 -0.0000439688 29.999252 -0.0000439688 Z M 29.999252 -0.0000439688 " stroke="#c5c5c5" stroke-width="4" stroke-opacity="1" stroke-miterlimit="4"/></g></g><g clip-path="url(#2448398b3a)"><g clip-path="url(#5e17510912)"><g transform="matrix(1, 0, 0, 1, 52, 2)"><g clip-path="url(#9e8b945c4c)"><g clip-path="url(#e45642cf15)"><g clip-path="url(#9e245d688c)"><path fill="#ffffff" d="M 0.667969 0.164062 L 269.671875 0.164062 L 269.671875 212.058594 L 0.667969 212.058594 Z M 0.667969 0.164062 " fill-opacity="1" fill-rule="nonzero"/></g></g></g></g></g></g><g clip-path="url(#46abe5896a)"><g transform="matrix(1, 0, 0, 1, 52, 2)"><g clip-path="url(#6a850a5423)"><g clip-path="url(#78902d52ae)"><path fill="#ffffff" d="M 0.667969 0.164062 L 37.175781 0.164062 L 37.175781 212.082031 L 0.667969 212.082031 Z M 0.667969 0.164062 " fill-opacity="1" fill-rule="nonzero"/></g></g></g></g><g clip-path="url(#fb2731ed63)"><g clip-path="url(#5ae6e944c9)"><g transform="matrix(1, 0, 0, 1, 74, 80)"><g clip-path="url(#e4e41f0ce0)"><g clip-path="url(#b9bd4703ed)"><g clip-path="url(#cf458ef767)"><path fill="#dfdfdf" d="M 229.777344 0.558594 L 229.777344 118.839844 L 0.148438 118.839844 L 0.148438 0.558594 Z M 229.777344 0.558594 " fill-opacity="1" fill-rule="nonzero"/></g></g></g></g></g></g><g clip-path="url(#3da39e5b88)"><g clip-path="url(#a398f13a87)"><g transform="matrix(1, 0, 0, 1, 67, 17)"><g clip-path="url(#5f59ff9fda)"><g clip-path="url(#e0d83ab6f8)"><g clip-path="url(#3ab80c61e2)"><path fill="#f59e0b" d="M 0.566406 0.875 L 41.972656 0.875 L 41.972656 40.875 L 0.566406 40.875 Z M 0.566406 0.875 " fill-opacity="1" fill-rule="nonzero"/></g></g></g></g></g></g><g clip-path="url(#ab50118e48)"><path stroke-linecap="butt" transform="matrix(-0.749132, 0.00244466, -0.00244466, -0.749132, 318.953095, 67.711826)" fill="none" stroke-linejoin="miter" d="M 0.000286249 1.497711 L 419.517108 1.500565 " stroke="#e3e5e5" stroke-width="3" stroke-opacity="1" stroke-miterlimit="4"/></g><g clip-path="url(#eb68acffaa)"><g clip-path="url(#48c7ea1548)"><g transform="matrix(1, 0, 0, 1, 14, 30)"><g clip-path="url(#1d65952a1d)"><g clip-path="url(#c4340b1d1a)"><g clip-path="url(#ab0b27d3cd)"><path fill="#e3b66c" d="M 0.804688 0.734375 L 22.234375 0.734375 L 22.234375 20.90625 L 0.804688 20.90625 Z M 0.804688 0.734375 " fill-opacity="1" fill-rule="nonzero"/></g></g></g></g></g></g><g clip-path="url(#dace0863b0)"><g clip-path="url(#284e384571)"><g transform="matrix(1, 0, 0, 1, 14, 64)"><g clip-path="url(#0ac784ffcf)"><g clip-path="url(#80a8b21a8e)"><g clip-path="url(#5c44b39155)"><path fill="#e3b66c" d="M 0.804688 0.863281 L 22.234375 0.863281 L 22.234375 21.035156 L 0.804688 21.035156 Z M 0.804688 0.863281 " fill-opacity="1" fill-rule="nonzero"/></g></g></g></g></g></g><g clip-path="url(#9e90a56c04)"><g clip-path="url(#2a4d891d32)"><g transform="matrix(1, 0, 0, 1, 14, 98)"><g clip-path="url(#88c1f7b18d)"><g clip-path="url(#ac4566c350)"><g clip-path="url(#2cb2d68537)"><path fill="#e3b66c" d="M 0.804688 0.992188 L 22.234375 0.992188 L 22.234375 21.167969 L 0.804688 21.167969 Z M 0.804688 0.992188 " fill-opacity="1" fill-rule="nonzero"/></g></g></g></g></g></g><g clip-path="url(#aec224c34e)"><g clip-path="url(#bf66c430d0)"><g transform="matrix(1, 0, 0, 1, 14, 133)"><g clip-path="url(#f437d5d6c9)"><g clip-path="url(#43caf5035d)"><g clip-path="url(#48526b29d6)"><path fill="#e3b66c" d="M 0.804688 0.121094 L 22.234375 0.121094 L 22.234375 20.296875 L 0.804688 20.296875 Z M 0.804688 0.121094 " fill-opacity="1" fill-rule="nonzero"/></g></g></g></g></g></g><g clip-path="url(#f799143290)"><g clip-path="url(#d64b49aaf6)"><g transform="matrix(1, 0, 0, 1, 14, 167)"><g clip-path="url(#e5a982e5bc)"><g clip-path="url(#797c1c3259)"><g clip-path="url(#b90cc70187)"><path fill="#e3b66c" d="M 0.804688 0.253906 L 22.234375 0.253906 L 22.234375 20.425781 L 0.804688 20.425781 Z M 0.804688 0.253906 " fill-opacity="1" fill-rule="nonzero"/></g></g></g></g></g></g><g clip-path="url(#2e20dd5d45)"><g clip-path="url(#11b1a572d1)"><g transform="matrix(1, 0, 0, 1, 132, 35)"><g clip-path="url(#448970b3d2)"><g clip-path="url(#63bc2a89fc)"><g clip-path="url(#8d4991c198)"><path fill="#dfdfdf" d="M 0.414062 0.875 L 89.746094 0.875 L 89.746094 16.980469 L 0.414062 16.980469 Z M 0.414062 0.875 " fill-opacity="1" fill-rule="nonzero"/></g></g></g></g></g></g><g clip-path="url(#dfacf137e6)"><g clip-path="url(#81cbbef27e)"><g transform="matrix(1, 0, 0, 1, 132, 21)"><g clip-path="url(#d940842df0)"><g clip-path="url(#9162591576)"><g clip-path="url(#207d2e2546)"><path fill="#a2a2a2" d="M 0.414062 0.238281 L 50.878906 0.238281 L 50.878906 8.492188 L 0.414062 8.492188 Z M 0.414062 0.238281 " fill-opacity="1" fill-rule="nonzero"/></g></g></g></g></g></g></svg>