<svg xmlns="http://www.w3.org/2000/svg" xmlns:xlink="http://www.w3.org/1999/xlink" width="432" zoomAndPan="magnify" viewBox="0 0 324 214.499994" height="286" preserveAspectRatio="xMidYMid meet" version="1.0"><defs><clipPath id="c64b08abf3"><path d="M 0.375 0 L 323 0 L 323 213.839844 L 0.375 213.839844 Z M 0.375 0 " clip-rule="nonzero"/></clipPath><clipPath id="2a39c5c56a"><path d="M 22.824219 0 L 300.554688 0 C 312.953125 0 323 10.050781 323 22.449219 L 323 191.394531 C 323 203.789062 312.953125 213.839844 300.554688 213.839844 L 22.824219 213.839844 C 10.425781 213.839844 0.375 203.789062 0.375 191.394531 L 0.375 22.449219 C 0.375 10.050781 10.425781 0 22.824219 0 Z M 22.824219 0 " clip-rule="nonzero"/></clipPath><clipPath id="cb262012c8"><path d="M 0.375 0 L 323 0 L 323 213.839844 L 0.375 213.839844 Z M 0.375 0 " clip-rule="nonzero"/></clipPath><clipPath id="c77039f207"><path d="M 22.824219 0 L 300.554688 0 C 312.953125 0 323 10.050781 323 22.449219 L 323 191.394531 C 323 203.789062 312.953125 213.839844 300.554688 213.839844 L 22.824219 213.839844 C 10.425781 213.839844 0.375 203.789062 0.375 191.394531 L 0.375 22.449219 C 0.375 10.050781 10.425781 0 22.824219 0 Z M 22.824219 0 " clip-rule="nonzero"/></clipPath><clipPath id="3154afd933"><rect x="0" width="323" y="0" height="214"/></clipPath><clipPath id="88a895b4f7"><path d="M 0.375 0 L 322.875 0 L 322.875 214 L 0.375 214 Z M 0.375 0 " clip-rule="nonzero"/></clipPath><clipPath id="6ada36e848"><path d="M 22.824219 0 L 300.542969 0 C 312.941406 0 322.992188 10.050781 322.992188 22.449219 L 322.992188 191.390625 C 322.992188 203.785156 312.941406 213.835938 300.542969 213.835938 L 22.824219 213.835938 C 10.425781 213.835938 0.375 203.785156 0.375 191.390625 L 0.375 22.449219 C 0.375 10.050781 10.425781 0 22.824219 0 Z M 22.824219 0 " clip-rule="nonzero"/></clipPath><clipPath id="1ebafab1b1"><path d="M 26.398438 76.230469 L 304 76.230469 L 304 193.796875 L 26.398438 193.796875 Z M 26.398438 76.230469 " clip-rule="nonzero"/></clipPath><clipPath id="72d1e5589b"><path d="M 303.617188 84.171875 L 303.617188 186.3125 C 303.617188 188.300781 302.828125 190.203125 301.425781 191.605469 C 300.023438 193.007812 298.117188 193.796875 296.132812 193.796875 L 33.914062 193.796875 C 31.929688 193.796875 30.027344 193.007812 28.621094 191.605469 C 27.21875 190.203125 26.429688 188.300781 26.429688 186.3125 L 26.429688 84.171875 C 26.429688 82.1875 27.21875 80.28125 28.621094 78.878906 C 30.027344 77.476562 31.929688 76.6875 33.914062 76.6875 L 296.132812 76.6875 C 298.117188 76.6875 300.023438 77.476562 301.425781 78.878906 C 302.828125 80.28125 303.617188 82.1875 303.617188 84.171875 Z M 303.617188 84.171875 " clip-rule="nonzero"/></clipPath><clipPath id="7a4efa0aa1"><path d="M 0.398438 0.621094 L 277.75 0.621094 L 277.75 117.796875 L 0.398438 117.796875 Z M 0.398438 0.621094 " clip-rule="nonzero"/></clipPath><clipPath id="acd9094bda"><path d="M 277.617188 8.171875 L 277.617188 110.3125 C 277.617188 112.300781 276.828125 114.203125 275.425781 115.605469 C 274.023438 117.007812 272.117188 117.796875 270.132812 117.796875 L 7.914062 117.796875 C 5.929688 117.796875 4.027344 117.007812 2.621094 115.605469 C 1.21875 114.203125 0.429688 112.300781 0.429688 110.3125 L 0.429688 8.171875 C 0.429688 6.1875 1.21875 4.28125 2.621094 2.878906 C 4.027344 1.476562 5.929688 0.6875 7.914062 0.6875 L 270.132812 0.6875 C 272.117188 0.6875 274.023438 1.476562 275.425781 2.878906 C 276.828125 4.28125 277.617188 6.1875 277.617188 8.171875 Z M 277.617188 8.171875 " clip-rule="nonzero"/></clipPath><clipPath id="98f3658a2b"><rect x="0" width="278" y="0" height="118"/></clipPath><clipPath id="00c964f70e"><path d="M 26.4375 15.691406 L 68 15.691406 L 68 55.292969 L 26.4375 55.292969 Z M 26.4375 15.691406 " clip-rule="nonzero"/></clipPath><clipPath id="3a908d621c"><path d="M 47.199219 15.691406 C 35.730469 15.691406 26.4375 24.554688 26.4375 35.492188 C 26.4375 46.429688 35.730469 55.292969 47.199219 55.292969 C 58.664062 55.292969 67.960938 46.429688 67.960938 35.492188 C 67.960938 24.554688 58.664062 15.691406 47.199219 15.691406 Z M 47.199219 15.691406 " clip-rule="nonzero"/></clipPath><clipPath id="463f5182c2"><path d="M 0.4375 0.691406 L 42 0.691406 L 42 40.292969 L 0.4375 40.292969 Z M 0.4375 0.691406 " clip-rule="nonzero"/></clipPath><clipPath id="b3eace2d87"><path d="M 21.199219 0.691406 C 9.730469 0.691406 0.4375 9.554688 0.4375 20.492188 C 0.4375 31.429688 9.730469 40.292969 21.199219 40.292969 C 32.664062 40.292969 41.960938 31.429688 41.960938 20.492188 C 41.960938 9.554688 32.664062 0.691406 21.199219 0.691406 Z M 21.199219 0.691406 " clip-rule="nonzero"/></clipPath><clipPath id="2a5bc4ea9c"><rect x="0" width="42" y="0" height="41"/></clipPath><clipPath id="da4cd27be5"><path d="M 84.4375 28.421875 L 173.683594 28.421875 L 173.683594 42.5625 L 84.4375 42.5625 Z M 84.4375 28.421875 " clip-rule="nonzero"/></clipPath><clipPath id="127ac1bacf"><path d="M 91.507812 28.421875 L 166.582031 28.421875 C 170.484375 28.421875 173.652344 31.585938 173.652344 35.492188 C 173.652344 39.394531 170.484375 42.5625 166.582031 42.5625 L 91.507812 42.5625 C 87.601562 42.5625 84.4375 39.394531 84.4375 35.492188 C 84.4375 31.585938 87.601562 28.421875 91.507812 28.421875 Z M 91.507812 28.421875 " clip-rule="nonzero"/></clipPath><clipPath id="b51ae03b92"><path d="M 0.4375 0.421875 L 89.683594 0.421875 L 89.683594 14.5625 L 0.4375 14.5625 Z M 0.4375 0.421875 " clip-rule="nonzero"/></clipPath><clipPath id="93a00bdb6a"><path d="M 7.507812 0.421875 L 82.582031 0.421875 C 86.484375 0.421875 89.652344 3.585938 89.652344 7.492188 C 89.652344 11.394531 86.484375 14.5625 82.582031 14.5625 L 7.507812 14.5625 C 3.601562 14.5625 0.4375 11.394531 0.4375 7.492188 C 0.4375 3.585938 3.601562 0.421875 7.507812 0.421875 Z M 7.507812 0.421875 " clip-rule="nonzero"/></clipPath><clipPath id="7dfcf098ce"><rect x="0" width="90" y="0" height="15"/></clipPath><clipPath id="6dc7763c06"><path d="M 190.113281 28.421875 L 252.960938 28.421875 L 252.960938 42.5625 L 190.113281 42.5625 Z M 190.113281 28.421875 " clip-rule="nonzero"/></clipPath><clipPath id="2d6457e25d"><path d="M 197.183594 28.421875 L 245.871094 28.421875 C 249.773438 28.421875 252.9375 31.585938 252.9375 35.492188 C 252.9375 39.394531 249.773438 42.5625 245.871094 42.5625 L 197.183594 42.5625 C 193.277344 42.5625 190.113281 39.394531 190.113281 35.492188 C 190.113281 31.585938 193.277344 28.421875 197.183594 28.421875 Z M 197.183594 28.421875 " clip-rule="nonzero"/></clipPath><clipPath id="1bcca72405"><path d="M 0.113281 0.421875 L 62.960938 0.421875 L 62.960938 14.5625 L 0.113281 14.5625 Z M 0.113281 0.421875 " clip-rule="nonzero"/></clipPath><clipPath id="112e75794c"><path d="M 7.183594 0.421875 L 55.871094 0.421875 C 59.773438 0.421875 62.9375 3.585938 62.9375 7.492188 C 62.9375 11.394531 59.773438 14.5625 55.871094 14.5625 L 7.183594 14.5625 C 3.277344 14.5625 0.113281 11.394531 0.113281 7.492188 C 0.113281 3.585938 3.277344 0.421875 7.183594 0.421875 Z M 7.183594 0.421875 " clip-rule="nonzero"/></clipPath><clipPath id="ec42bf316a"><rect x="0" width="63" y="0" height="15"/></clipPath></defs><g clip-path="url(#c64b08abf3)"><g clip-path="url(#2a39c5c56a)"><g transform="matrix(1, 0, 0, 1, 0, 0)"><g clip-path="url(#3154afd933)"><g clip-path="url(#cb262012c8)"><g clip-path="url(#c77039f207)"><path fill="#ffffff" d="M 0.375 0 L 322.808594 0 L 322.808594 213.839844 L 0.375 213.839844 Z M 0.375 0 " fill-opacity="1" fill-rule="nonzero"/></g></g></g></g></g></g><g clip-path="url(#88a895b4f7)"><g clip-path="url(#6ada36e848)"><path stroke-linecap="butt" transform="matrix(0.748256, 0, 0, 0.748256, 0.376749, 0.00159266)" fill="none" stroke-linejoin="miter" d="M 29.999729 -0.0021285 L 401.154572 -0.0021285 C 417.724358 -0.0021285 431.156638 13.430152 431.156638 29.999937 L 431.156638 255.780232 C 431.156638 272.344797 417.724358 285.777077 401.154572 285.777077 L 29.999729 285.777077 C 13.429943 285.777077 -0.00233704 272.344797 -0.00233704 255.780232 L -0.00233704 29.999937 C -0.00233704 13.430152 13.429943 -0.0021285 29.999729 -0.0021285 Z M 29.999729 -0.0021285 " stroke="#c5c5c5" stroke-width="4" stroke-opacity="1" stroke-miterlimit="4"/></g></g><g clip-path="url(#1ebafab1b1)"><g clip-path="url(#72d1e5589b)"><g transform="matrix(1, 0, 0, 1, 26, 76)"><g clip-path="url(#98f3658a2b)"><g clip-path="url(#7a4efa0aa1)"><g clip-path="url(#acd9094bda)"><path fill="#dfdfdf" d="M 277.617188 0.6875 L 277.617188 117.796875 L 0.398438 117.796875 L 0.398438 0.6875 Z M 277.617188 0.6875 " fill-opacity="1" fill-rule="nonzero"/></g></g></g></g></g></g><g clip-path="url(#00c964f70e)"><g clip-path="url(#3a908d621c)"><g transform="matrix(1, 0, 0, 1, 26, 15)"><g clip-path="url(#2a5bc4ea9c)"><g clip-path="url(#463f5182c2)"><g clip-path="url(#b3eace2d87)"><path fill="#ec4899" d="M 0.4375 0.691406 L 41.894531 0.691406 L 41.894531 40.292969 L 0.4375 40.292969 Z M 0.4375 0.691406 " fill-opacity="1" fill-rule="nonzero"/></g></g></g></g></g></g><g clip-path="url(#da4cd27be5)"><g clip-path="url(#127ac1bacf)"><g transform="matrix(1, 0, 0, 1, 84, 28)"><g clip-path="url(#7dfcf098ce)"><g clip-path="url(#b51ae03b92)"><g clip-path="url(#93a00bdb6a)"><path fill="#616262" d="M 0.4375 0.421875 L 89.628906 0.421875 L 89.628906 14.5625 L 0.4375 14.5625 Z M 0.4375 0.421875 " fill-opacity="1" fill-rule="nonzero"/></g></g></g></g></g></g><g clip-path="url(#6dc7763c06)"><g clip-path="url(#2d6457e25d)"><g transform="matrix(1, 0, 0, 1, 190, 28)"><g clip-path="url(#ec42bf316a)"><g clip-path="url(#1bcca72405)"><g clip-path="url(#112e75794c)"><path fill="#d074a2" d="M 0.113281 0.421875 L 62.960938 0.421875 L 62.960938 14.5625 L 0.113281 14.5625 Z M 0.113281 0.421875 " fill-opacity="1" fill-rule="nonzero"/></g></g></g></g></g></g><path stroke-linecap="butt" transform="matrix(-0.748256, 0, 0, -0.748256, 315.941369, 63.975101)" fill="none" stroke-linejoin="miter" d="M -0.0000500294 1.501544 L 411.143627 1.501544 " stroke="#e3e5e5" stroke-width="3" stroke-opacity="1" stroke-miterlimit="4"/></svg>