<svg xmlns="http://www.w3.org/2000/svg" xmlns:xlink="http://www.w3.org/1999/xlink" width="432" zoomAndPan="magnify" viewBox="0 0 324 216.749995" height="289" preserveAspectRatio="xMidYMid meet" version="1.0"><defs><clipPath id="87bf7be561"><path d="M 0.1875 0 L 323.3125 0 L 323.3125 215.980469 L 0.1875 215.980469 Z M 0.1875 0 " clip-rule="nonzero"/></clipPath><clipPath id="e5b796c539"><path d="M 22.660156 0 L 300.71875 0 C 313.128906 0 323.191406 10.0625 323.191406 22.472656 L 323.191406 193.503906 C 323.191406 205.917969 313.128906 215.980469 300.71875 215.980469 L 22.660156 215.980469 C 10.25 215.980469 0.1875 205.917969 0.1875 193.503906 L 0.1875 22.472656 C 0.1875 10.0625 10.25 0 22.660156 0 Z M 22.660156 0 " clip-rule="nonzero"/></clipPath><clipPath id="efdb2db8c6"><path d="M 0.1875 0 L 323.3125 0 L 323.3125 215.980469 L 0.1875 215.980469 Z M 0.1875 0 " clip-rule="nonzero"/></clipPath><clipPath id="cbbd08a1df"><path d="M 22.660156 0 L 300.71875 0 C 313.128906 0 323.191406 10.0625 323.191406 22.472656 L 323.191406 193.503906 C 323.191406 205.917969 313.128906 215.980469 300.71875 215.980469 L 22.660156 215.980469 C 10.25 215.980469 0.1875 205.917969 0.1875 193.503906 L 0.1875 22.472656 C 0.1875 10.0625 10.25 0 22.660156 0 Z M 22.660156 0 " clip-rule="nonzero"/></clipPath><clipPath id="25a8b69fe6"><rect x="0" width="324" y="0" height="216"/></clipPath><clipPath id="16259a2d93"><path d="M 0.1875 0 L 323.0625 0 L 323.0625 215.75 L 0.1875 215.75 Z M 0.1875 0 " clip-rule="nonzero"/></clipPath><clipPath id="83abba5364"><path d="M 22.660156 0 L 300.707031 0 C 313.121094 0 323.179688 10.0625 323.179688 22.472656 L 323.179688 193.5 C 323.179688 205.910156 313.121094 215.972656 300.707031 215.972656 L 22.660156 215.972656 C 10.25 215.972656 0.1875 205.910156 0.1875 193.5 L 0.1875 22.472656 C 0.1875 10.0625 10.25 0 22.660156 0 Z M 22.660156 0 " clip-rule="nonzero"/></clipPath><clipPath id="c91ff8544b"><path d="M 26.277344 18.953125 L 109 18.953125 L 109 101.554688 L 26.277344 101.554688 Z M 26.277344 18.953125 " clip-rule="nonzero"/></clipPath><clipPath id="3333d7d823"><path d="M 67.605469 18.953125 C 44.78125 18.953125 26.277344 37.445312 26.277344 60.253906 C 26.277344 83.0625 44.78125 101.554688 67.605469 101.554688 C 90.433594 101.554688 108.9375 83.0625 108.9375 60.253906 C 108.9375 37.445312 90.433594 18.953125 67.605469 18.953125 Z M 67.605469 18.953125 " clip-rule="nonzero"/></clipPath><clipPath id="c04e259405"><path d="M 0.277344 0.953125 L 83 0.953125 L 83 83.554688 L 0.277344 83.554688 Z M 0.277344 0.953125 " clip-rule="nonzero"/></clipPath><clipPath id="6260147dba"><path d="M 41.605469 0.953125 C 18.78125 0.953125 0.277344 19.445312 0.277344 42.253906 C 0.277344 65.0625 18.78125 83.554688 41.605469 83.554688 C 64.433594 83.554688 82.9375 65.0625 82.9375 42.253906 C 82.9375 19.445312 64.433594 0.953125 41.605469 0.953125 Z M 41.605469 0.953125 " clip-rule="nonzero"/></clipPath><clipPath id="5ae149d90c"><rect x="0" width="83" y="0" height="84"/></clipPath><clipPath id="75f35f2b12"><path d="M 26.277344 126.746094 L 115.636719 126.746094 L 115.636719 141.027344 L 26.277344 141.027344 Z M 26.277344 126.746094 " clip-rule="nonzero"/></clipPath><clipPath id="5b70e965f9"><path d="M 33.417969 126.746094 L 108.457031 126.746094 C 110.347656 126.746094 112.164062 127.5 113.503906 128.835938 C 114.84375 130.175781 115.59375 131.992188 115.59375 133.886719 C 115.59375 135.78125 114.84375 137.59375 113.503906 138.933594 C 112.164062 140.273438 110.347656 141.027344 108.457031 141.027344 L 33.417969 141.027344 C 31.523438 141.027344 29.707031 140.273438 28.367188 138.933594 C 27.027344 137.59375 26.277344 135.78125 26.277344 133.886719 C 26.277344 131.992188 27.027344 130.175781 28.367188 128.835938 C 29.707031 127.5 31.523438 126.746094 33.417969 126.746094 Z M 33.417969 126.746094 " clip-rule="nonzero"/></clipPath><clipPath id="7ec8e4f8bc"><path d="M 0.277344 0.746094 L 89.636719 0.746094 L 89.636719 15.027344 L 0.277344 15.027344 Z M 0.277344 0.746094 " clip-rule="nonzero"/></clipPath><clipPath id="60eb746b21"><path d="M 7.417969 0.746094 L 82.457031 0.746094 C 84.347656 0.746094 86.164062 1.5 87.503906 2.835938 C 88.84375 4.175781 89.59375 5.992188 89.59375 7.886719 C 89.59375 9.78125 88.84375 11.59375 87.503906 12.933594 C 86.164062 14.273438 84.347656 15.027344 82.457031 15.027344 L 7.417969 15.027344 C 5.523438 15.027344 3.707031 14.273438 2.367188 12.933594 C 1.027344 11.59375 0.277344 9.78125 0.277344 7.886719 C 0.277344 5.992188 1.027344 4.175781 2.367188 2.835938 C 3.707031 1.5 5.523438 0.746094 7.417969 0.746094 Z M 7.417969 0.746094 " clip-rule="nonzero"/></clipPath><clipPath id="4e4fc8ca57"><rect x="0" width="90" y="0" height="16"/></clipPath><clipPath id="7c1bf08a48"><path d="M 26.277344 152.84375 L 89.195312 152.84375 L 89.195312 167.125 L 26.277344 167.125 Z M 26.277344 152.84375 " clip-rule="nonzero"/></clipPath><clipPath id="09b8d53e46"><path d="M 33.417969 152.84375 L 82.035156 152.84375 C 83.929688 152.84375 85.746094 153.597656 87.085938 154.9375 C 88.425781 156.273438 89.175781 158.089844 89.175781 159.984375 C 89.175781 161.878906 88.425781 163.695312 87.085938 165.035156 C 85.746094 166.371094 83.929688 167.125 82.035156 167.125 L 33.417969 167.125 C 31.523438 167.125 29.707031 166.371094 28.367188 165.035156 C 27.027344 163.695312 26.277344 161.878906 26.277344 159.984375 C 26.277344 158.089844 27.027344 156.273438 28.367188 154.9375 C 29.707031 153.597656 31.523438 152.84375 33.417969 152.84375 Z M 33.417969 152.84375 " clip-rule="nonzero"/></clipPath><clipPath id="3cddc9d3d8"><path d="M 0.277344 0.84375 L 63.195312 0.84375 L 63.195312 15.125 L 0.277344 15.125 Z M 0.277344 0.84375 " clip-rule="nonzero"/></clipPath><clipPath id="024b68896d"><path d="M 7.417969 0.84375 L 56.035156 0.84375 C 57.929688 0.84375 59.746094 1.597656 61.085938 2.9375 C 62.425781 4.273438 63.175781 6.089844 63.175781 7.984375 C 63.175781 9.878906 62.425781 11.695312 61.085938 13.035156 C 59.746094 14.371094 57.929688 15.125 56.035156 15.125 L 7.417969 15.125 C 5.523438 15.125 3.707031 14.371094 2.367188 13.035156 C 1.027344 11.695312 0.277344 9.878906 0.277344 7.984375 C 0.277344 6.089844 1.027344 4.273438 2.367188 2.9375 C 3.707031 1.597656 5.523438 0.84375 7.417969 0.84375 Z M 7.417969 0.84375 " clip-rule="nonzero"/></clipPath><clipPath id="a1b889d053"><rect x="0" width="64" y="0" height="16"/></clipPath><clipPath id="cff7ff3fed"><path d="M 153.160156 22.019531 L 294.890625 22.019531 L 294.890625 195.863281 L 153.160156 195.863281 Z M 153.160156 22.019531 " clip-rule="nonzero"/></clipPath><clipPath id="936e2292e5"><path d="M 160.648438 22.019531 L 287.402344 22.019531 C 289.386719 22.019531 291.292969 22.808594 292.699219 24.210938 C 294.101562 25.617188 294.890625 27.523438 294.890625 29.507812 L 294.890625 187.878906 C 294.890625 189.863281 294.101562 191.769531 292.699219 193.175781 C 291.292969 194.578125 289.386719 195.367188 287.402344 195.367188 L 160.648438 195.367188 C 158.664062 195.367188 156.757812 194.578125 155.351562 193.175781 C 153.949219 191.769531 153.160156 189.863281 153.160156 187.878906 L 153.160156 29.507812 C 153.160156 27.523438 153.949219 25.617188 155.351562 24.210938 C 156.757812 22.808594 158.664062 22.019531 160.648438 22.019531 Z M 160.648438 22.019531 " clip-rule="nonzero"/></clipPath><clipPath id="b2cd183925"><path d="M 0.160156 0.0195312 L 141.890625 0.0195312 L 141.890625 173.375 L 0.160156 173.375 Z M 0.160156 0.0195312 " clip-rule="nonzero"/></clipPath><clipPath id="08cfaae193"><path d="M 7.648438 0.0195312 L 134.402344 0.0195312 C 136.386719 0.0195312 138.292969 0.808594 139.699219 2.210938 C 141.101562 3.617188 141.890625 5.523438 141.890625 7.507812 L 141.890625 165.878906 C 141.890625 167.863281 141.101562 169.769531 139.699219 171.175781 C 138.292969 172.578125 136.386719 173.367188 134.402344 173.367188 L 7.648438 173.367188 C 5.664062 173.367188 3.757812 172.578125 2.351562 171.175781 C 0.949219 169.769531 0.160156 167.863281 0.160156 165.878906 L 0.160156 7.507812 C 0.160156 5.523438 0.949219 3.617188 2.351562 2.210938 C 3.757812 0.808594 5.664062 0.0195312 7.648438 0.0195312 Z M 7.648438 0.0195312 " clip-rule="nonzero"/></clipPath><clipPath id="776279a462"><rect x="0" width="142" y="0" height="174"/></clipPath><clipPath id="7082e03483"><path d="M 123 0 L 142 0 L 142 216.5 L 123 216.5 Z M 123 0 " clip-rule="nonzero"/></clipPath><clipPath id="0129718626"><path d="M 26.277344 181.089844 L 89.195312 181.089844 L 89.195312 195.367188 L 26.277344 195.367188 Z M 26.277344 181.089844 " clip-rule="nonzero"/></clipPath><clipPath id="0c0d64dae7"><path d="M 33.417969 181.089844 L 82.035156 181.089844 C 83.929688 181.089844 85.746094 181.839844 87.085938 183.179688 C 88.425781 184.519531 89.175781 186.335938 89.175781 188.230469 C 89.175781 190.121094 88.425781 191.9375 87.085938 193.277344 C 85.746094 194.617188 83.929688 195.367188 82.035156 195.367188 L 33.417969 195.367188 C 31.523438 195.367188 29.707031 194.617188 28.367188 193.277344 C 27.027344 191.9375 26.277344 190.121094 26.277344 188.230469 C 26.277344 186.335938 27.027344 184.519531 28.367188 183.179688 C 29.707031 181.839844 31.523438 181.089844 33.417969 181.089844 Z M 33.417969 181.089844 " clip-rule="nonzero"/></clipPath><clipPath id="687585e48e"><path d="M 0.277344 0.0898438 L 63.195312 0.0898438 L 63.195312 14.367188 L 0.277344 14.367188 Z M 0.277344 0.0898438 " clip-rule="nonzero"/></clipPath><clipPath id="ce8aa71891"><path d="M 7.417969 0.0898438 L 56.035156 0.0898438 C 57.929688 0.0898438 59.746094 0.839844 61.085938 2.179688 C 62.425781 3.519531 63.175781 5.335938 63.175781 7.230469 C 63.175781 9.121094 62.425781 10.9375 61.085938 12.277344 C 59.746094 13.617188 57.929688 14.367188 56.035156 14.367188 L 7.417969 14.367188 C 5.523438 14.367188 3.707031 13.617188 2.367188 12.277344 C 1.027344 10.9375 0.277344 9.121094 0.277344 7.230469 C 0.277344 5.335938 1.027344 3.519531 2.367188 2.179688 C 3.707031 0.839844 5.523438 0.0898438 7.417969 0.0898438 Z M 7.417969 0.0898438 " clip-rule="nonzero"/></clipPath><clipPath id="a2561ec165"><rect x="0" width="64" y="0" height="15"/></clipPath></defs><g clip-path="url(#87bf7be561)"><g clip-path="url(#e5b796c539)"><g><g clip-path="url(#25a8b69fe6)"><g clip-path="url(#efdb2db8c6)"><g clip-path="url(#cbbd08a1df)"><path fill="#ffffff" d="M 0.1875 0 L 323.3125 0 L 323.3125 215.980469 L 0.1875 215.980469 Z M 0.1875 0 " fill-opacity="1" fill-rule="nonzero"/></g></g></g></g></g></g><g clip-path="url(#16259a2d93)"><g clip-path="url(#83abba5364)"><path stroke-linecap="butt" transform="matrix(0.749136, 0, 0, 0.749136, 0.18664, 0.0000352877)" fill="none" stroke-linejoin="miter" d="M 29.999252 -0.0000471046 L 401.156043 -0.0000471046 C 417.727218 -0.0000471046 431.154146 13.432095 431.154146 29.998057 L 431.154146 258.297547 C 431.154146 274.863509 417.727218 288.295651 401.156043 288.295651 L 29.999252 288.295651 C 13.433291 288.295651 0.00114842 274.863509 0.00114842 258.297547 L 0.00114842 29.998057 C 0.00114842 13.432095 13.433291 -0.0000471046 29.999252 -0.0000471046 Z M 29.999252 -0.0000471046 " stroke="#c5c5c5" stroke-width="4" stroke-opacity="1" stroke-miterlimit="4"/></g></g><g clip-path="url(#c91ff8544b)"><g clip-path="url(#3333d7d823)"><g transform="matrix(1, 0, 0, 1, 26, 18)"><g clip-path="url(#5ae149d90c)"><g clip-path="url(#c04e259405)"><g clip-path="url(#6260147dba)"><path fill="#8f00ff" d="M 0.277344 0.953125 L 82.875 0.953125 L 82.875 83.554688 L 0.277344 83.554688 Z M 0.277344 0.953125 " fill-opacity="1" fill-rule="nonzero"/></g></g></g></g></g></g><g clip-path="url(#75f35f2b12)"><g clip-path="url(#5b70e965f9)"><g transform="matrix(1, 0, 0, 1, 26, 126)"><g clip-path="url(#4e4fc8ca57)"><g clip-path="url(#7ec8e4f8bc)"><g clip-path="url(#60eb746b21)"><path fill="#616262" d="M 0.277344 0.746094 L 89.582031 0.746094 L 89.582031 15.027344 L 0.277344 15.027344 Z M 0.277344 0.746094 " fill-opacity="1" fill-rule="nonzero"/></g></g></g></g></g></g><g clip-path="url(#7c1bf08a48)"><g clip-path="url(#09b8d53e46)"><g transform="matrix(1, 0, 0, 1, 26, 152)"><g clip-path="url(#a1b889d053)"><g clip-path="url(#3cddc9d3d8)"><g clip-path="url(#024b68896d)"><path fill="#a2a2a2" d="M 0.277344 0.84375 L 63.195312 0.84375 L 63.195312 15.125 L 0.277344 15.125 Z M 0.277344 0.84375 " fill-opacity="1" fill-rule="nonzero"/></g></g></g></g></g></g><g clip-path="url(#cff7ff3fed)"><g clip-path="url(#936e2292e5)"><g transform="matrix(1, 0, 0, 1, 153, 22)"><g clip-path="url(#776279a462)"><g clip-path="url(#b2cd183925)"><g clip-path="url(#08cfaae193)"><path fill="#dfdfdf" d="M 0.160156 0.0195312 L 141.890625 0.0195312 L 141.890625 173.308594 L 0.160156 173.308594 Z M 0.160156 0.0195312 " fill-opacity="1" fill-rule="nonzero"/></g></g></g></g></g></g><g clip-path="url(#7082e03483)"><path stroke-linecap="butt" transform="matrix(-0.00254688, -0.749132, 0.749132, -0.00254688, 132.388816, 212.507044)" fill="none" stroke-linejoin="miter" d="M 0.000794394 0.998362 L 279.527586 0.999675 " stroke="#e3e5e5" stroke-width="2" stroke-opacity="1" stroke-miterlimit="4"/></g><g clip-path="url(#0129718626)"><g clip-path="url(#0c0d64dae7)"><g transform="matrix(1, 0, 0, 1, 26, 181)"><g clip-path="url(#a2561ec165)"><g clip-path="url(#687585e48e)"><g clip-path="url(#ce8aa71891)"><path fill="#a2a2a2" d="M 0.277344 0.0898438 L 63.195312 0.0898438 L 63.195312 14.367188 L 0.277344 14.367188 Z M 0.277344 0.0898438 " fill-opacity="1" fill-rule="nonzero"/></g></g></g></g></g></g></svg>