<svg xmlns="http://www.w3.org/2000/svg" xmlns:xlink="http://www.w3.org/1999/xlink" width="432" zoomAndPan="magnify" viewBox="0 0 324 216.749995" height="289" preserveAspectRatio="xMidYMid meet" version="1.0"><defs><clipPath id="119f34b244"><path d="M 0.1875 0 L 323.8125 0 L 323.8125 215.296875 L 0.1875 215.296875 Z M 0.1875 0 " clip-rule="nonzero"/></clipPath><clipPath id="6ebbb36a1d"><path d="M 22.660156 0 L 300.714844 0 C 313.128906 0 323.191406 10.0625 323.191406 22.472656 L 323.191406 192.824219 C 323.191406 205.234375 313.128906 215.296875 300.714844 215.296875 L 22.660156 215.296875 C 10.25 215.296875 0.1875 205.234375 0.1875 192.824219 L 0.1875 22.472656 C 0.1875 10.0625 10.25 0 22.660156 0 Z M 22.660156 0 " clip-rule="nonzero"/></clipPath><clipPath id="6f316c88f5"><path d="M 0.1875 0 L 323.332031 0 L 323.332031 215.296875 L 0.1875 215.296875 Z M 0.1875 0 " clip-rule="nonzero"/></clipPath><clipPath id="40584eb429"><path d="M 22.660156 0 L 300.714844 0 C 313.128906 0 323.191406 10.0625 323.191406 22.472656 L 323.191406 192.824219 C 323.191406 205.234375 313.128906 215.296875 300.714844 215.296875 L 22.660156 215.296875 C 10.25 215.296875 0.1875 205.234375 0.1875 192.824219 L 0.1875 22.472656 C 0.1875 10.0625 10.25 0 22.660156 0 Z M 22.660156 0 " clip-rule="nonzero"/></clipPath><clipPath id="64b7e537f2"><rect x="0" width="324" y="0" height="216"/></clipPath><clipPath id="905403140c"><path d="M 0.1875 0.00390625 L 323.0625 0.00390625 L 323.0625 215.003906 L 0.1875 215.003906 Z M 0.1875 0.00390625 " clip-rule="nonzero"/></clipPath><clipPath id="be76650e9b"><path d="M 22.660156 0.00390625 L 300.707031 0.00390625 C 313.121094 0.00390625 323.179688 10.0625 323.179688 22.476562 L 323.179688 192.820312 C 323.179688 205.230469 313.121094 215.292969 300.707031 215.292969 L 22.660156 215.292969 C 10.25 215.292969 0.1875 205.230469 0.1875 192.820312 L 0.1875 22.476562 C 0.1875 10.0625 10.25 0.00390625 22.660156 0.00390625 Z M 22.660156 0.00390625 " clip-rule="nonzero"/></clipPath><clipPath id="4f379c4c8d"><path d="M 26.277344 18.894531 L 79.078125 18.894531 L 79.078125 58.765625 L 26.277344 58.765625 Z M 26.277344 18.894531 " clip-rule="nonzero"/></clipPath><clipPath id="039b9beabb"><path d="M 52.667969 18.894531 C 38.09375 18.894531 26.277344 27.820312 26.277344 38.828125 C 26.277344 49.839844 38.09375 58.765625 52.667969 58.765625 C 67.246094 58.765625 79.058594 49.839844 79.058594 38.828125 C 79.058594 27.820312 67.246094 18.894531 52.667969 18.894531 Z M 52.667969 18.894531 " clip-rule="nonzero"/></clipPath><clipPath id="7c0c8816a4"><path d="M 0.277344 0.894531 L 53.078125 0.894531 L 53.078125 40.765625 L 0.277344 40.765625 Z M 0.277344 0.894531 " clip-rule="nonzero"/></clipPath><clipPath id="0824bde684"><path d="M 26.667969 0.894531 C 12.09375 0.894531 0.277344 9.820312 0.277344 20.828125 C 0.277344 31.839844 12.09375 40.765625 26.667969 40.765625 C 41.246094 40.765625 53.058594 31.839844 53.058594 20.828125 C 53.058594 9.820312 41.246094 0.894531 26.667969 0.894531 Z M 26.667969 0.894531 " clip-rule="nonzero"/></clipPath><clipPath id="43900b49cd"><rect x="0" width="54" y="0" height="41"/></clipPath><clipPath id="2b609c86c0"><path d="M 26.277344 72.777344 L 115.632812 72.777344 L 115.632812 87.011719 L 26.277344 87.011719 Z M 26.277344 72.777344 " clip-rule="nonzero"/></clipPath><clipPath id="cdcb5b5f6a"><path d="M 33.394531 72.777344 L 108.476562 72.777344 C 112.410156 72.777344 115.59375 75.964844 115.59375 79.894531 C 115.59375 83.824219 112.410156 87.011719 108.476562 87.011719 L 33.394531 87.011719 C 29.464844 87.011719 26.277344 83.824219 26.277344 79.894531 C 26.277344 75.964844 29.464844 72.777344 33.394531 72.777344 Z M 33.394531 72.777344 " clip-rule="nonzero"/></clipPath><clipPath id="e7a9337807"><path d="M 0.277344 0.777344 L 89.632812 0.777344 L 89.632812 15.011719 L 0.277344 15.011719 Z M 0.277344 0.777344 " clip-rule="nonzero"/></clipPath><clipPath id="060cbfd72b"><path d="M 7.394531 0.777344 L 82.476562 0.777344 C 86.410156 0.777344 89.59375 3.964844 89.59375 7.894531 C 89.59375 11.824219 86.410156 15.011719 82.476562 15.011719 L 7.394531 15.011719 C 3.464844 15.011719 0.277344 11.824219 0.277344 7.894531 C 0.277344 3.964844 3.464844 0.777344 7.394531 0.777344 Z M 7.394531 0.777344 " clip-rule="nonzero"/></clipPath><clipPath id="f046627df6"><rect x="0" width="90" y="0" height="16"/></clipPath><clipPath id="c7e5d5fef8"><path d="M 26.277344 94.113281 L 89.21875 94.113281 L 89.21875 108.347656 L 26.277344 108.347656 Z M 26.277344 94.113281 " clip-rule="nonzero"/></clipPath><clipPath id="081ff50d06"><path d="M 33.394531 94.113281 L 82.058594 94.113281 C 85.988281 94.113281 89.175781 97.300781 89.175781 101.230469 C 89.175781 105.164062 85.988281 108.347656 82.058594 108.347656 L 33.394531 108.347656 C 29.464844 108.347656 26.277344 105.164062 26.277344 101.230469 C 26.277344 97.300781 29.464844 94.113281 33.394531 94.113281 Z M 33.394531 94.113281 " clip-rule="nonzero"/></clipPath><clipPath id="2edf2bb833"><path d="M 0.277344 0.113281 L 63.21875 0.113281 L 63.21875 14.347656 L 0.277344 14.347656 Z M 0.277344 0.113281 " clip-rule="nonzero"/></clipPath><clipPath id="63833d7864"><path d="M 7.394531 0.113281 L 56.058594 0.113281 C 59.988281 0.113281 63.175781 3.300781 63.175781 7.230469 C 63.175781 11.164062 59.988281 14.347656 56.058594 14.347656 L 7.394531 14.347656 C 3.464844 14.347656 0.277344 11.164062 0.277344 7.230469 C 0.277344 3.300781 3.464844 0.113281 7.394531 0.113281 Z M 7.394531 0.113281 " clip-rule="nonzero"/></clipPath><clipPath id="0650f8ebea"><rect x="0" width="64" y="0" height="15"/></clipPath><clipPath id="330f1020b6"><path d="M 153.160156 21.949219 L 294.890625 21.949219 L 294.890625 195 L 153.160156 195 Z M 153.160156 21.949219 " clip-rule="nonzero"/></clipPath><clipPath id="b71f4c5d9c"><path d="M 160.648438 21.949219 L 287.402344 21.949219 C 291.539062 21.949219 294.890625 25.300781 294.890625 29.441406 L 294.890625 187.257812 C 294.890625 191.398438 291.539062 194.75 287.402344 194.75 L 160.648438 194.75 C 156.511719 194.75 153.160156 191.398438 153.160156 187.257812 L 153.160156 29.441406 C 153.160156 25.300781 156.511719 21.949219 160.648438 21.949219 Z M 160.648438 21.949219 " clip-rule="nonzero"/></clipPath><clipPath id="59ada0dd01"><path d="M 0.160156 0.949219 L 141.890625 0.949219 L 141.890625 173.894531 L 0.160156 173.894531 Z M 0.160156 0.949219 " clip-rule="nonzero"/></clipPath><clipPath id="08ef2ed4fd"><path d="M 7.648438 0.949219 L 134.402344 0.949219 C 138.539062 0.949219 141.890625 4.300781 141.890625 8.441406 L 141.890625 166.257812 C 141.890625 170.398438 138.539062 173.75 134.402344 173.75 L 7.648438 173.75 C 3.511719 173.75 0.160156 170.398438 0.160156 166.257812 L 0.160156 8.441406 C 0.160156 4.300781 3.511719 0.949219 7.648438 0.949219 Z M 7.648438 0.949219 " clip-rule="nonzero"/></clipPath><clipPath id="3ff1194855"><rect x="0" width="142" y="0" height="174"/></clipPath><clipPath id="39d73a5078"><path d="M 119 0 L 146 0 L 146 216.5 L 119 216.5 Z M 119 0 " clip-rule="nonzero"/></clipPath><clipPath id="49deb5037a"><path d="M 0.1875 0 L 323.3125 0 L 323.3125 215.980469 L 0.1875 215.980469 Z M 0.1875 0 " clip-rule="nonzero"/></clipPath><clipPath id="a61b6b665e"><path d="M 22.660156 0 L 300.71875 0 C 313.128906 0 323.191406 10.0625 323.191406 22.472656 L 323.191406 193.503906 C 323.191406 205.917969 313.128906 215.980469 300.71875 215.980469 L 22.660156 215.980469 C 10.25 215.980469 0.1875 205.917969 0.1875 193.503906 L 0.1875 22.472656 C 0.1875 10.0625 10.25 0 22.660156 0 Z M 22.660156 0 " clip-rule="nonzero"/></clipPath><clipPath id="49ba4eeab1"><path d="M 0.1875 0 L 323.3125 0 L 323.3125 215.980469 L 0.1875 215.980469 Z M 0.1875 0 " clip-rule="nonzero"/></clipPath><clipPath id="f5a1814951"><path d="M 22.660156 0 L 300.71875 0 C 313.128906 0 323.191406 10.0625 323.191406 22.472656 L 323.191406 193.503906 C 323.191406 205.917969 313.128906 215.980469 300.71875 215.980469 L 22.660156 215.980469 C 10.25 215.980469 0.1875 205.917969 0.1875 193.503906 L 0.1875 22.472656 C 0.1875 10.0625 10.25 0 22.660156 0 Z M 22.660156 0 " clip-rule="nonzero"/></clipPath><clipPath id="6b91298232"><rect x="0" width="324" y="0" height="216"/></clipPath><clipPath id="b8477daf10"><path d="M 0.1875 0 L 323.0625 0 L 323.0625 215.75 L 0.1875 215.75 Z M 0.1875 0 " clip-rule="nonzero"/></clipPath><clipPath id="3a412177b0"><path d="M 22.660156 0 L 300.707031 0 C 313.121094 0 323.179688 10.0625 323.179688 22.472656 L 323.179688 193.5 C 323.179688 205.910156 313.121094 215.972656 300.707031 215.972656 L 22.660156 215.972656 C 10.25 215.972656 0.1875 205.910156 0.1875 193.5 L 0.1875 22.472656 C 0.1875 10.0625 10.25 0 22.660156 0 Z M 22.660156 0 " clip-rule="nonzero"/></clipPath><clipPath id="2d6c24d912"><path d="M 17.527344 18.953125 L 115.59375 18.953125 L 115.59375 194.785156 L 17.527344 194.785156 Z M 17.527344 18.953125 " clip-rule="nonzero"/></clipPath><clipPath id="4f0e6b187a"><path d="M 25.019531 18.953125 L 108.105469 18.953125 C 110.089844 18.953125 111.996094 19.742188 113.402344 21.148438 C 114.804688 22.550781 115.59375 24.457031 115.59375 26.445312 L 115.59375 187.175781 C 115.59375 189.160156 114.804688 191.066406 113.402344 192.472656 C 111.996094 193.875 110.089844 194.664062 108.105469 194.664062 L 25.019531 194.664062 C 23.03125 194.664062 21.125 193.875 19.722656 192.472656 C 18.316406 191.066406 17.527344 189.160156 17.527344 187.175781 L 17.527344 26.445312 C 17.527344 24.457031 18.316406 22.550781 19.722656 21.148438 C 21.125 19.742188 23.03125 18.953125 25.019531 18.953125 Z M 25.019531 18.953125 " clip-rule="nonzero"/></clipPath><clipPath id="786ea66d98"><path d="M 0.527344 0.953125 L 98.59375 0.953125 L 98.59375 176.785156 L 0.527344 176.785156 Z M 0.527344 0.953125 " clip-rule="nonzero"/></clipPath><clipPath id="356acebd21"><path d="M 8.019531 0.953125 L 91.105469 0.953125 C 93.089844 0.953125 94.996094 1.742188 96.402344 3.148438 C 97.804688 4.550781 98.59375 6.457031 98.59375 8.445312 L 98.59375 169.175781 C 98.59375 171.160156 97.804688 173.066406 96.402344 174.472656 C 94.996094 175.875 93.089844 176.664062 91.105469 176.664062 L 8.019531 176.664062 C 6.03125 176.664062 4.125 175.875 2.722656 174.472656 C 1.316406 173.066406 0.527344 171.160156 0.527344 169.175781 L 0.527344 8.445312 C 0.527344 6.457031 1.316406 4.550781 2.722656 3.148438 C 4.125 1.742188 6.03125 0.953125 8.019531 0.953125 Z M 8.019531 0.953125 " clip-rule="nonzero"/></clipPath><clipPath id="4fb41a98bb"><rect x="0" width="99" y="0" height="177"/></clipPath><clipPath id="d8478062aa"><path d="M 26.277344 29.496094 L 66.8125 29.496094 L 66.8125 67.929688 L 26.277344 67.929688 Z M 26.277344 29.496094 " clip-rule="nonzero"/></clipPath><clipPath id="2e00f22469"><path d="M 46.535156 29.496094 C 35.347656 29.496094 26.277344 38.097656 26.277344 48.714844 C 26.277344 59.328125 35.347656 67.929688 46.535156 67.929688 C 57.722656 67.929688 66.792969 59.328125 66.792969 48.714844 C 66.792969 38.097656 57.722656 29.496094 46.535156 29.496094 Z M 46.535156 29.496094 " clip-rule="nonzero"/></clipPath><clipPath id="2014c46a5a"><path d="M 0.277344 0.496094 L 40.8125 0.496094 L 40.8125 38.929688 L 0.277344 38.929688 Z M 0.277344 0.496094 " clip-rule="nonzero"/></clipPath><clipPath id="3812266fb9"><path d="M 20.535156 0.496094 C 9.347656 0.496094 0.277344 9.097656 0.277344 19.714844 C 0.277344 30.328125 9.347656 38.929688 20.535156 38.929688 C 31.722656 38.929688 40.792969 30.328125 40.792969 19.714844 C 40.792969 9.097656 31.722656 0.496094 20.535156 0.496094 Z M 20.535156 0.496094 " clip-rule="nonzero"/></clipPath><clipPath id="5fd349e14e"><rect x="0" width="41" y="0" height="39"/></clipPath><clipPath id="52a6985867"><path d="M 26.277344 78.1875 L 96.332031 78.1875 L 96.332031 88.078125 L 26.277344 88.078125 Z M 26.277344 78.1875 " clip-rule="nonzero"/></clipPath><clipPath id="d3d835d81a"><path d="M 31.222656 78.1875 L 91.347656 78.1875 C 94.082031 78.1875 96.296875 80.402344 96.296875 83.132812 C 96.296875 85.867188 94.082031 88.078125 91.347656 88.078125 L 31.222656 88.078125 C 28.492188 88.078125 26.277344 85.867188 26.277344 83.132812 C 26.277344 80.402344 28.492188 78.1875 31.222656 78.1875 Z M 31.222656 78.1875 " clip-rule="nonzero"/></clipPath><clipPath id="032a91b4e7"><path d="M 0.277344 0.1875 L 70.316406 0.1875 L 70.316406 10.078125 L 0.277344 10.078125 Z M 0.277344 0.1875 " clip-rule="nonzero"/></clipPath><clipPath id="9b80f24fff"><path d="M 5.222656 0.1875 L 65.347656 0.1875 C 68.082031 0.1875 70.296875 2.402344 70.296875 5.132812 C 70.296875 7.867188 68.082031 10.078125 65.347656 10.078125 L 5.222656 10.078125 C 2.492188 10.078125 0.277344 7.867188 0.277344 5.132812 C 0.277344 2.402344 2.492188 0.1875 5.222656 0.1875 Z M 5.222656 0.1875 " clip-rule="nonzero"/></clipPath><clipPath id="ddde8f4433"><rect x="0" width="71" y="0" height="11"/></clipPath><clipPath id="34aefe8e6f"><path d="M 26.277344 97.65625 L 89.832031 97.65625 L 89.832031 107.0625 L 26.277344 107.0625 Z M 26.277344 97.65625 " clip-rule="nonzero"/></clipPath><clipPath id="7ec5013533"><path d="M 30.980469 97.65625 L 85.117188 97.65625 C 87.714844 97.65625 89.820312 99.761719 89.820312 102.359375 C 89.820312 104.957031 87.714844 107.0625 85.117188 107.0625 L 30.980469 107.0625 C 28.382812 107.0625 26.277344 104.957031 26.277344 102.359375 C 26.277344 99.761719 28.382812 97.65625 30.980469 97.65625 Z M 30.980469 97.65625 " clip-rule="nonzero"/></clipPath><clipPath id="0d4246358a"><path d="M 0.277344 0.65625 L 63.832031 0.65625 L 63.832031 10.0625 L 0.277344 10.0625 Z M 0.277344 0.65625 " clip-rule="nonzero"/></clipPath><clipPath id="95b0b2bfe5"><path d="M 4.980469 0.65625 L 59.117188 0.65625 C 61.714844 0.65625 63.820312 2.761719 63.820312 5.359375 C 63.820312 7.957031 61.714844 10.0625 59.117188 10.0625 L 4.980469 10.0625 C 2.382812 10.0625 0.277344 7.957031 0.277344 5.359375 C 0.277344 2.761719 2.382812 0.65625 4.980469 0.65625 Z M 4.980469 0.65625 " clip-rule="nonzero"/></clipPath><clipPath id="bb8234458c"><rect x="0" width="64" y="0" height="11"/></clipPath><clipPath id="6d8a5718fe"><path d="M 137.34375 18.953125 L 300.980469 18.953125 L 300.980469 194.734375 L 137.34375 194.734375 Z M 137.34375 18.953125 " clip-rule="nonzero"/></clipPath><clipPath id="2cbb3a45e4"><path d="M 144.835938 18.953125 L 293.488281 18.953125 C 295.476562 18.953125 297.382812 19.742188 298.785156 21.148438 C 300.191406 22.550781 300.980469 24.457031 300.980469 26.445312 L 300.980469 187.175781 C 300.980469 189.160156 300.191406 191.066406 298.785156 192.472656 C 297.382812 193.875 295.476562 194.664062 293.488281 194.664062 L 144.835938 194.664062 C 142.851562 194.664062 140.945312 193.875 139.539062 192.472656 C 138.136719 191.066406 137.34375 189.160156 137.34375 187.175781 L 137.34375 26.445312 C 137.34375 24.457031 138.136719 22.550781 139.539062 21.148438 C 140.945312 19.742188 142.851562 18.953125 144.835938 18.953125 Z M 144.835938 18.953125 " clip-rule="nonzero"/></clipPath><clipPath id="b55b04b574"><path d="M 0.34375 0.953125 L 163.980469 0.953125 L 163.980469 176.734375 L 0.34375 176.734375 Z M 0.34375 0.953125 " clip-rule="nonzero"/></clipPath><clipPath id="5aea74dcdc"><path d="M 7.835938 0.953125 L 156.488281 0.953125 C 158.476562 0.953125 160.382812 1.742188 161.785156 3.148438 C 163.191406 4.550781 163.980469 6.457031 163.980469 8.445312 L 163.980469 169.175781 C 163.980469 171.160156 163.191406 173.066406 161.785156 174.472656 C 160.382812 175.875 158.476562 176.664062 156.488281 176.664062 L 7.835938 176.664062 C 5.851562 176.664062 3.945312 175.875 2.539062 174.472656 C 1.136719 173.066406 0.34375 171.160156 0.34375 169.175781 L 0.34375 8.445312 C 0.34375 6.457031 1.136719 4.550781 2.539062 3.148438 C 3.945312 1.742188 5.851562 0.953125 7.835938 0.953125 Z M 7.835938 0.953125 " clip-rule="nonzero"/></clipPath><clipPath id="218193c95a"><rect x="0" width="164" y="0" height="177"/></clipPath><clipPath id="381ee0d87d"><path d="M 26.277344 115.757812 L 89.832031 115.757812 L 89.832031 125.160156 L 26.277344 125.160156 Z M 26.277344 115.757812 " clip-rule="nonzero"/></clipPath><clipPath id="404066064a"><path d="M 30.980469 115.757812 L 85.117188 115.757812 C 87.714844 115.757812 89.820312 117.863281 89.820312 120.460938 C 89.820312 123.058594 87.714844 125.160156 85.117188 125.160156 L 30.980469 125.160156 C 28.382812 125.160156 26.277344 123.058594 26.277344 120.460938 C 26.277344 117.863281 28.382812 115.757812 30.980469 115.757812 Z M 30.980469 115.757812 " clip-rule="nonzero"/></clipPath><clipPath id="cb0ebe77a5"><path d="M 0.277344 0.757812 L 63.832031 0.757812 L 63.832031 10.160156 L 0.277344 10.160156 Z M 0.277344 0.757812 " clip-rule="nonzero"/></clipPath><clipPath id="001d04c375"><path d="M 4.980469 0.757812 L 59.117188 0.757812 C 61.714844 0.757812 63.820312 2.863281 63.820312 5.460938 C 63.820312 8.058594 61.714844 10.160156 59.117188 10.160156 L 4.980469 10.160156 C 2.382812 10.160156 0.277344 8.058594 0.277344 5.460938 C 0.277344 2.863281 2.382812 0.757812 4.980469 0.757812 Z M 4.980469 0.757812 " clip-rule="nonzero"/></clipPath><clipPath id="996fe2c7bf"><rect x="0" width="64" y="0" height="11"/></clipPath><clipPath id="6c7b54aa08"><path d="M 25.957031 133.804688 L 70.957031 133.804688 L 70.957031 143.210938 L 25.957031 143.210938 Z M 25.957031 133.804688 " clip-rule="nonzero"/></clipPath><clipPath id="c32b12502b"><path d="M 30.65625 133.804688 L 66.234375 133.804688 C 68.832031 133.804688 70.9375 135.910156 70.9375 138.507812 C 70.9375 141.105469 68.832031 143.210938 66.234375 143.210938 L 30.65625 143.210938 C 28.058594 143.210938 25.957031 141.105469 25.957031 138.507812 C 25.957031 135.910156 28.058594 133.804688 30.65625 133.804688 Z M 30.65625 133.804688 " clip-rule="nonzero"/></clipPath><clipPath id="49dd0f5ebb"><path d="M 0.957031 0.804688 L 45.957031 0.804688 L 45.957031 10.210938 L 0.957031 10.210938 Z M 0.957031 0.804688 " clip-rule="nonzero"/></clipPath><clipPath id="5ee760078e"><path d="M 5.65625 0.804688 L 41.234375 0.804688 C 43.832031 0.804688 45.9375 2.910156 45.9375 5.507812 C 45.9375 8.105469 43.832031 10.210938 41.234375 10.210938 L 5.65625 10.210938 C 3.058594 10.210938 0.957031 8.105469 0.957031 5.507812 C 0.957031 2.910156 3.058594 0.804688 5.65625 0.804688 Z M 5.65625 0.804688 " clip-rule="nonzero"/></clipPath><clipPath id="d7af818dcc"><rect x="0" width="46" y="0" height="11"/></clipPath></defs><g clip-path="url(#119f34b244)"><g clip-path="url(#6ebbb36a1d)"><g><g clip-path="url(#64b7e537f2)"><g clip-path="url(#6f316c88f5)"><g clip-path="url(#40584eb429)"><path fill="#ffffff" d="M 0.1875 0 L 323.132812 0 L 323.132812 215.296875 L 0.1875 215.296875 Z M 0.1875 0 " fill-opacity="1" fill-rule="nonzero"/></g></g></g></g></g></g><g clip-path="url(#905403140c)"><g clip-path="url(#be76650e9b)"><path stroke-linecap="butt" transform="matrix(0.749136, 0, 0, 0.749136, 0.18664, 0.00224249)" fill="none" stroke-linejoin="miter" d="M 29.999254 0.0022209 L 401.156068 0.0022209 C 417.727245 0.0022209 431.154174 13.42915 431.154174 30.000326 L 431.154174 257.387322 C 431.154174 273.953285 417.727245 287.385428 401.156068 287.385428 L 29.999254 287.385428 C 13.433292 287.385428 0.00114842 273.953285 0.00114842 257.387322 L 0.00114842 30.000326 C 0.00114842 13.42915 13.433292 0.0022209 29.999254 0.0022209 Z M 29.999254 0.0022209 " stroke="#8f8f8f" stroke-width="4" stroke-opacity="1" stroke-miterlimit="4"/></g></g><g clip-path="url(#4f379c4c8d)"><g clip-path="url(#039b9beabb)"><g transform="matrix(1, 0, 0, 1, 26, 18)"><g clip-path="url(#43900b49cd)"><g clip-path="url(#7c0c8816a4)"><g clip-path="url(#0824bde684)"><path fill="#101010" d="M 0.277344 0.894531 L 53.078125 0.894531 L 53.078125 40.765625 L 0.277344 40.765625 Z M 0.277344 0.894531 " fill-opacity="1" fill-rule="nonzero"/></g></g></g></g></g></g><g clip-path="url(#2b609c86c0)"><g clip-path="url(#cdcb5b5f6a)"><g transform="matrix(1, 0, 0, 1, 26, 72)"><g clip-path="url(#f046627df6)"><g clip-path="url(#e7a9337807)"><g clip-path="url(#060cbfd72b)"><path fill="#616262" d="M 0.277344 0.777344 L 89.574219 0.777344 L 89.574219 15.011719 L 0.277344 15.011719 Z M 0.277344 0.777344 " fill-opacity="1" fill-rule="nonzero"/></g></g></g></g></g></g><g clip-path="url(#c7e5d5fef8)"><g clip-path="url(#081ff50d06)"><g transform="matrix(1, 0, 0, 1, 26, 94)"><g clip-path="url(#0650f8ebea)"><g clip-path="url(#2edf2bb833)"><g clip-path="url(#63833d7864)"><path fill="#a2a2a2" d="M 0.277344 0.113281 L 63.164062 0.113281 L 63.164062 14.347656 L 0.277344 14.347656 Z M 0.277344 0.113281 " fill-opacity="1" fill-rule="nonzero"/></g></g></g></g></g></g><g clip-path="url(#330f1020b6)"><g clip-path="url(#b71f4c5d9c)"><g transform="matrix(1, 0, 0, 1, 153, 21)"><g clip-path="url(#3ff1194855)"><g clip-path="url(#59ada0dd01)"><g clip-path="url(#08ef2ed4fd)"><path fill="#dfdfdf" d="M 0.160156 0.949219 L 141.890625 0.949219 L 141.890625 173.6875 L 0.160156 173.6875 Z M 0.160156 0.949219 " fill-opacity="1" fill-rule="nonzero"/></g></g></g></g></g></g><g clip-path="url(#39d73a5078)"><path stroke-linecap="butt" transform="matrix(-0.00255496, -0.749131, 0.749131, -0.00255496, 132.017789, 211.839508)" fill="none" stroke-linejoin="miter" d="M -0.000346214 1.49885 L 278.640029 1.500155 " stroke="#e3e5e5" stroke-width="3" stroke-opacity="1" stroke-miterlimit="4"/></g><g clip-path="url(#49deb5037a)"><g clip-path="url(#a61b6b665e)"><g><g clip-path="url(#6b91298232)"><g clip-path="url(#49ba4eeab1)"><g clip-path="url(#f5a1814951)"><path fill="#ffffff" d="M 0.1875 0 L 323.3125 0 L 323.3125 215.980469 L 0.1875 215.980469 Z M 0.1875 0 " fill-opacity="1" fill-rule="nonzero"/></g></g></g></g></g></g><g clip-path="url(#b8477daf10)"><g clip-path="url(#3a412177b0)"><path stroke-linecap="butt" transform="matrix(0.749136, 0, 0, 0.749136, 0.18664, 0.0000329386)" fill="none" stroke-linejoin="miter" d="M 29.999252 -0.0000439688 L 401.156043 -0.0000439688 C 417.727218 -0.0000439688 431.154146 13.432098 431.154146 29.99806 L 431.154146 258.297551 C 431.154146 274.863512 417.727218 288.295654 401.156043 288.295654 L 29.999252 288.295654 C 13.433291 288.295654 0.00114842 274.863512 0.00114842 258.297551 L 0.00114842 29.99806 C 0.00114842 13.432098 13.433291 -0.0000439688 29.999252 -0.0000439688 Z M 29.999252 -0.0000439688 " stroke="#c5c5c5" stroke-width="4" stroke-opacity="1" stroke-miterlimit="4"/></g></g><g clip-path="url(#2d6c24d912)"><g clip-path="url(#4f0e6b187a)"><g transform="matrix(1, 0, 0, 1, 17, 18)"><g clip-path="url(#4fb41a98bb)"><g clip-path="url(#786ea66d98)"><g clip-path="url(#356acebd21)"><path fill="#dfdfdf" d="M 0.527344 0.953125 L 98.59375 0.953125 L 98.59375 176.785156 L 0.527344 176.785156 Z M 0.527344 0.953125 " fill-opacity="1" fill-rule="nonzero"/></g></g></g></g></g></g><g clip-path="url(#d8478062aa)"><g clip-path="url(#2e00f22469)"><g transform="matrix(1, 0, 0, 1, 26, 29)"><g clip-path="url(#5fd349e14e)"><g clip-path="url(#2014c46a5a)"><g clip-path="url(#3812266fb9)"><path fill="#ef4444" d="M 0.277344 0.496094 L 40.8125 0.496094 L 40.8125 38.929688 L 0.277344 38.929688 Z M 0.277344 0.496094 " fill-opacity="1" fill-rule="nonzero"/></g></g></g></g></g></g><g clip-path="url(#52a6985867)"><g clip-path="url(#d3d835d81a)"><g transform="matrix(1, 0, 0, 1, 26, 78)"><g clip-path="url(#ddde8f4433)"><g clip-path="url(#032a91b4e7)"><g clip-path="url(#9b80f24fff)"><path fill="#616262" d="M 0.277344 0.1875 L 70.292969 0.1875 L 70.292969 10.078125 L 0.277344 10.078125 Z M 0.277344 0.1875 " fill-opacity="1" fill-rule="nonzero"/></g></g></g></g></g></g><g clip-path="url(#34aefe8e6f)"><g clip-path="url(#7ec5013533)"><g transform="matrix(1, 0, 0, 1, 26, 97)"><g clip-path="url(#bb8234458c)"><g clip-path="url(#0d4246358a)"><g clip-path="url(#95b0b2bfe5)"><path fill="#e56868" d="M 0.277344 0.65625 L 63.832031 0.65625 L 63.832031 10.0625 L 0.277344 10.0625 Z M 0.277344 0.65625 " fill-opacity="1" fill-rule="nonzero"/></g></g></g></g></g></g><g clip-path="url(#6d8a5718fe)"><g clip-path="url(#2cbb3a45e4)"><g transform="matrix(1, 0, 0, 1, 137, 18)"><g clip-path="url(#218193c95a)"><g clip-path="url(#b55b04b574)"><g clip-path="url(#5aea74dcdc)"><path fill="#dfdfdf" d="M 0.34375 0.953125 L 163.980469 0.953125 L 163.980469 176.734375 L 0.34375 176.734375 Z M 0.34375 0.953125 " fill-opacity="1" fill-rule="nonzero"/></g></g></g></g></g></g><g clip-path="url(#381ee0d87d)"><g clip-path="url(#404066064a)"><g transform="matrix(1, 0, 0, 1, 26, 115)"><g clip-path="url(#996fe2c7bf)"><g clip-path="url(#cb0ebe77a5)"><g clip-path="url(#001d04c375)"><path fill="#e56868" d="M 0.277344 0.757812 L 63.832031 0.757812 L 63.832031 10.160156 L 0.277344 10.160156 Z M 0.277344 0.757812 " fill-opacity="1" fill-rule="nonzero"/></g></g></g></g></g></g><g clip-path="url(#6c7b54aa08)"><g clip-path="url(#c32b12502b)"><g transform="matrix(1, 0, 0, 1, 25, 133)"><g clip-path="url(#d7af818dcc)"><g clip-path="url(#49dd0f5ebb)"><g clip-path="url(#5ee760078e)"><path fill="#e56868" d="M 0.957031 0.804688 L 45.921875 0.804688 L 45.921875 10.210938 L 0.957031 10.210938 Z M 0.957031 0.804688 " fill-opacity="1" fill-rule="nonzero"/></g></g></g></g></g></g></svg>